<?xml version="1.0" standalone="no"?>
<!DOCTYPE svg PUBLIC "-//W3C//DTD SVG 1.1//EN" "http://www.w3.org/Graphics/SVG/1.1/DTD/svg11.dtd">
<svg xmlns="http://www.w3.org/2000/svg" xmlns:xlink="http://www.w3.org/1999/xlink" version="1.1" id="Layer_1" x="0px" y="0px" viewBox="0 0 435.8 435.8" style="enable-background:new 0 0 435.8 435.8;" xml:space="preserve" width="435.79998779296875" height="435.79998779296875">
<style type="text/css">
	.st0{fill:#d2bad7;}
</style>
<rect class="st0" width="27.2" height="27.2"/>
<rect x="27.2" y="27.2" class="st0" width="27.2" height="27.2"/>
<rect x="27.2" y="81.7" class="st0" width="27.2" height="27.2"/>
<rect y="54.5" class="st0" width="27.2" height="27.2"/>
<rect x="54.5" class="st0" width="27.2" height="27.2"/>
<rect x="81.7" y="27.2" class="st0" width="27.2" height="27.2"/>
<rect x="54.5" y="54.5" class="st0" width="27.2" height="27.2"/>
<rect x="81.7" y="81.7" class="st0" width="27.2" height="27.2"/>
<rect x="109" class="st0" width="27.2" height="27.2"/>
<rect x="136.2" y="27.2" class="st0" width="27.2" height="27.2"/>
<rect x="136.2" y="81.7" class="st0" width="27.2" height="27.2"/>
<rect x="109" y="54.5" class="st0" width="27.2" height="27.2"/>
<rect x="163.4" class="st0" width="27.2" height="27.2"/>
<rect x="190.7" y="27.2" class="st0" width="27.2" height="27.2"/>
<rect x="163.4" y="54.5" class="st0" width="27.2" height="27.2"/>
<rect x="190.7" y="81.7" class="st0" width="27.2" height="27.2"/>
<rect x="217.9" class="st0" width="27.2" height="27.2"/>
<rect x="245.2" y="27.2" class="st0" width="27.2" height="27.2"/>
<rect x="245.2" y="81.7" class="st0" width="27.2" height="27.2"/>
<rect x="217.9" y="54.5" class="st0" width="27.2" height="27.2"/>
<rect x="272.4" class="st0" width="27.2" height="27.2"/>
<rect x="299.6" y="27.2" class="st0" width="27.2" height="27.2"/>
<rect x="272.4" y="54.5" class="st0" width="27.2" height="27.2"/>
<rect x="299.6" y="81.7" class="st0" width="27.2" height="27.2"/>
<rect x="326.9" class="st0" width="27.2" height="27.2"/>
<rect x="354.1" y="27.2" class="st0" width="27.2" height="27.2"/>
<rect x="354.1" y="81.7" class="st0" width="27.2" height="27.2"/>
<rect x="326.9" y="54.5" class="st0" width="27.2" height="27.2"/>
<rect x="381.4" class="st0" width="27.2" height="27.2"/>
<rect x="408.6" y="27.2" class="st0" width="27.2" height="27.2"/>
<rect x="381.4" y="54.5" class="st0" width="27.2" height="27.2"/>
<rect x="408.6" y="81.7" class="st0" width="27.2" height="27.2"/>
<rect y="109" class="st0" width="27.2" height="27.2"/>
<rect x="27.2" y="136.2" class="st0" width="27.2" height="27.2"/>
<rect x="27.2" y="190.7" class="st0" width="27.2" height="27.2"/>
<rect y="163.4" class="st0" width="27.2" height="27.2"/>
<rect x="54.5" y="109" class="st0" width="27.2" height="27.2"/>
<rect x="81.7" y="136.2" class="st0" width="27.2" height="27.2"/>
<rect x="54.5" y="163.4" class="st0" width="27.2" height="27.2"/>
<rect x="81.7" y="190.7" class="st0" width="27.2" height="27.2"/>
<rect x="109" y="109" class="st0" width="27.2" height="27.2"/>
<rect x="136.2" y="136.2" class="st0" width="27.2" height="27.2"/>
<rect x="136.2" y="190.7" class="st0" width="27.2" height="27.2"/>
<rect x="109" y="163.4" class="st0" width="27.2" height="27.2"/>
<rect x="163.4" y="109" class="st0" width="27.2" height="27.2"/>
<rect x="190.7" y="136.2" class="st0" width="27.2" height="27.2"/>
<rect x="163.4" y="163.4" class="st0" width="27.2" height="27.2"/>
<rect x="190.7" y="190.7" class="st0" width="27.2" height="27.2"/>
<rect x="217.9" y="109" class="st0" width="27.2" height="27.2"/>
<rect x="245.2" y="136.2" class="st0" width="27.2" height="27.2"/>
<rect x="245.2" y="190.7" class="st0" width="27.2" height="27.2"/>
<rect x="217.9" y="163.4" class="st0" width="27.2" height="27.2"/>
<rect x="272.4" y="109" class="st0" width="27.2" height="27.2"/>
<rect x="299.6" y="136.2" class="st0" width="27.2" height="27.2"/>
<rect x="272.4" y="163.4" class="st0" width="27.2" height="27.2"/>
<rect x="299.6" y="190.7" class="st0" width="27.2" height="27.2"/>
<rect x="326.9" y="109" class="st0" width="27.2" height="27.2"/>
<rect x="354.1" y="136.2" class="st0" width="27.2" height="27.2"/>
<rect x="354.1" y="190.7" class="st0" width="27.2" height="27.2"/>
<rect x="326.9" y="163.4" class="st0" width="27.2" height="27.2"/>
<rect x="381.4" y="109" class="st0" width="27.2" height="27.2"/>
<rect x="408.6" y="136.2" class="st0" width="27.2" height="27.2"/>
<rect x="381.4" y="163.4" class="st0" width="27.2" height="27.2"/>
<rect x="408.6" y="190.7" class="st0" width="27.2" height="27.2"/>
<rect y="217.9" class="st0" width="27.2" height="27.2"/>
<rect x="27.2" y="245.2" class="st0" width="27.2" height="27.2"/>
<rect x="27.2" y="299.6" class="st0" width="27.2" height="27.2"/>
<rect y="272.4" class="st0" width="27.2" height="27.2"/>
<rect x="54.5" y="217.9" class="st0" width="27.2" height="27.2"/>
<rect x="81.7" y="245.2" class="st0" width="27.2" height="27.2"/>
<rect x="54.5" y="272.4" class="st0" width="27.2" height="27.2"/>
<rect x="81.7" y="299.6" class="st0" width="27.2" height="27.2"/>
<rect x="109" y="217.9" class="st0" width="27.2" height="27.2"/>
<rect x="136.2" y="245.2" class="st0" width="27.2" height="27.2"/>
<rect x="136.2" y="299.6" class="st0" width="27.2" height="27.2"/>
<rect x="109" y="272.4" class="st0" width="27.2" height="27.2"/>
<rect x="163.4" y="217.9" class="st0" width="27.2" height="27.2"/>
<rect x="190.7" y="245.2" class="st0" width="27.2" height="27.2"/>
<rect x="163.4" y="272.4" class="st0" width="27.2" height="27.2"/>
<rect x="190.7" y="299.6" class="st0" width="27.2" height="27.2"/>
<rect x="217.9" y="217.9" class="st0" width="27.2" height="27.2"/>
<rect x="245.2" y="245.2" class="st0" width="27.2" height="27.2"/>
<rect x="245.2" y="299.6" class="st0" width="27.2" height="27.2"/>
<rect x="217.9" y="272.4" class="st0" width="27.2" height="27.2"/>
<rect x="272.4" y="217.9" class="st0" width="27.2" height="27.2"/>
<rect x="299.6" y="245.2" class="st0" width="27.2" height="27.2"/>
<rect x="272.4" y="272.4" class="st0" width="27.2" height="27.2"/>
<rect x="299.6" y="299.6" class="st0" width="27.2" height="27.2"/>
<rect x="326.9" y="217.9" class="st0" width="27.2" height="27.2"/>
<rect x="354.1" y="245.2" class="st0" width="27.2" height="27.2"/>
<rect x="354.1" y="299.6" class="st0" width="27.2" height="27.2"/>
<rect x="326.9" y="272.4" class="st0" width="27.2" height="27.2"/>
<rect x="381.4" y="217.9" class="st0" width="27.2" height="27.2"/>
<rect x="408.6" y="245.2" class="st0" width="27.2" height="27.2"/>
<rect x="381.4" y="272.4" class="st0" width="27.2" height="27.2"/>
<rect x="408.6" y="299.6" class="st0" width="27.2" height="27.2"/>
<rect y="326.9" class="st0" width="27.2" height="27.2"/>
<rect x="27.2" y="354.1" class="st0" width="27.2" height="27.2"/>
<rect x="27.2" y="408.6" class="st0" width="27.2" height="27.2"/>
<rect y="381.4" class="st0" width="27.2" height="27.2"/>
<rect x="54.5" y="326.9" class="st0" width="27.2" height="27.2"/>
<rect x="81.7" y="354.1" class="st0" width="27.2" height="27.2"/>
<rect x="54.5" y="381.4" class="st0" width="27.2" height="27.2"/>
<rect x="81.7" y="408.6" class="st0" width="27.2" height="27.2"/>
<rect x="109" y="326.9" class="st0" width="27.2" height="27.2"/>
<rect x="136.2" y="354.1" class="st0" width="27.2" height="27.2"/>
<rect x="136.2" y="408.6" class="st0" width="27.2" height="27.2"/>
<rect x="109" y="381.4" class="st0" width="27.2" height="27.2"/>
<rect x="163.4" y="326.9" class="st0" width="27.2" height="27.2"/>
<rect x="190.7" y="354.1" class="st0" width="27.2" height="27.2"/>
<rect x="163.4" y="381.4" class="st0" width="27.2" height="27.2"/>
<rect x="190.7" y="408.6" class="st0" width="27.2" height="27.2"/>
<rect x="217.9" y="326.9" class="st0" width="27.2" height="27.2"/>
<rect x="245.2" y="354.1" class="st0" width="27.2" height="27.2"/>
<rect x="245.2" y="408.6" class="st0" width="27.2" height="27.2"/>
<rect x="217.9" y="381.4" class="st0" width="27.2" height="27.2"/>
<rect x="272.4" y="326.9" class="st0" width="27.2" height="27.2"/>
<rect x="299.6" y="354.1" class="st0" width="27.2" height="27.2"/>
<rect x="272.4" y="381.4" class="st0" width="27.2" height="27.2"/>
<rect x="299.6" y="408.6" class="st0" width="27.2" height="27.2"/>
<rect x="326.9" y="326.9" class="st0" width="27.2" height="27.2"/>
<rect x="354.1" y="354.1" class="st0" width="27.2" height="27.2"/>
<rect x="354.1" y="408.6" class="st0" width="27.2" height="27.2"/>
<rect x="326.9" y="381.4" class="st0" width="27.2" height="27.2"/>
<rect x="381.4" y="326.9" class="st0" width="27.2" height="27.2"/>
<rect x="408.6" y="354.1" class="st0" width="27.2" height="27.2"/>
<rect x="381.4" y="381.4" class="st0" width="27.2" height="27.2"/>
<rect x="408.6" y="408.6" class="st0" width="27.2" height="27.2"/>
</svg>