<?xml version="1.0" encoding="utf-8"?>
<!-- Generator: Adobe Illustrator 26.3.1, SVG Export Plug-In . SVG Version: 6.00 Build 0)  -->
<svg version="1.1" id="Layer_1" xmlns="http://www.w3.org/2000/svg" xmlns:xlink="http://www.w3.org/1999/xlink" x="0px" y="0px"
	 viewBox="0 0 104.2 392.3" style="enable-background:new 0 0 104.2 392.3;" xml:space="preserve">
<style type="text/css">
	.st0{fill:#FFFFFF;}
</style>
<path class="st0" d="M48.6,128.6c0,0-19.1,23.3-12.8,88.9s33,84.8,23.5,155.5c0,0,10.4-27.1,7.8-53.4c-5.5-57.1-20.8-61-26.1-115.5
	C37.3,165.7,43.5,151.2,48.6,128.6z"/>
<path class="st0" d="M54.4,19.3c-22.9,18.4-37.8,44.2-33.2,92c5.5,57.1,43.2,102.2,48.7,158.5c7.2,74.6-9.2,92.4-9.2,92.4
	S89,330.2,83,267.8c-6.4-66.2-43.6-93.5-49.9-158.2C26.6,42.9,54.4,19.3,54.4,19.3z"/>
</svg>
