<?xml version="1.0" standalone="no"?>
<!DOCTYPE svg PUBLIC "-//W3C//DTD SVG 1.1//EN" "http://www.w3.org/Graphics/SVG/1.1/DTD/svg11.dtd">
<svg xmlns="http://www.w3.org/2000/svg" xmlns:xlink="http://www.w3.org/1999/xlink" version="1.1" id="Layer_1" x="0px" y="0px" viewBox="0 0 328 164" style="enable-background:new 0 0 328 164;" xml:space="preserve" width="328" height="164">
<style type="text/css">
	.st0{fill:#FFFFFF;}
</style>
<g>
	<g>
		<polygon class="st0" points="328,161.6 328,160.6 326.4,160.6 326.4,161.6   "/>
		<polygon class="st0" points="300.6,161.8 300.6,160.4 298,160.4 298,161.8   "/>
		<polygon class="st0" points="273.1,162 273.1,160.2 269.6,160.2 269.6,162.1   "/>
		<polygon class="st0" points="259.4,162.1 259.4,160.1 255.4,160.1 255.4,162.2   "/>
		<polygon class="st0" points="245.7,162.2 245.7,160 241.2,160 241.2,162.3   "/>
		<polygon class="st0" points="232,162.3 232,159.9 227,159.9 227,162.4   "/>
		<polygon class="st0" points="218.3,162.4 218.3,159.8 212.8,159.8 212.8,162.5   "/>
		<polygon class="st0" points="204.6,162.5 204.6,159.7 198.6,159.7 198.6,162.6   "/>
		<polygon class="st0" points="190.8,162.6 190.8,159.6 184.5,159.6 184.5,162.7   "/>
		<polygon class="st0" points="177.1,162.7 177.1,159.5 170.3,159.5 170.3,162.8   "/>
		<polygon class="st0" points="156.1,159.4 156.1,162.9 163.4,162.8 163.4,159.4   "/>
		<polygon class="st0" points="141.9,159.3 141.9,163 149.7,162.9 149.7,159.3   "/>
		<polygon class="st0" points="127.7,159.2 127.7,163.1 136,163 136,159.2   "/>
		<polygon class="st0" points="113.5,159.1 113.5,163.2 122.2,163.1 122.2,159.1   "/>
		<polygon class="st0" points="99.3,159 99.3,163.3 108.5,163.2 108.5,159   "/>
		<polygon class="st0" points="85.1,158.9 85.1,163.4 94.8,163.3 94.8,158.9   "/>
		<polygon class="st0" points="70.9,158.8 70.9,163.5 81.1,163.4 81.1,158.8   "/>
		<polygon class="st0" points="56.8,158.7 56.8,163.6 67.4,163.5 67.4,158.7   "/>
		<polygon class="st0" points="42.6,158.6 42.6,163.7 53.6,163.6 53.6,158.6   "/>
		<polygon class="st0" points="28.4,158.5 28.4,163.8 39.9,163.7 39.9,158.5   "/>
		<polygon class="st0" points="14.2,158.4 14.2,163.9 26.2,163.8 26.2,158.4   "/>
		<polygon class="st0" points="12.5,163.9 12.5,158.3 0,158.3 0,164   "/>
		<polygon class="st0" points="238.8,156.2 238.8,153.9 234.1,153.9 234.1,156.2   "/>
		<polygon class="st0" points="211.4,156.4 211.4,153.7 205.7,153.6 205.7,156.4   "/>
		<polygon class="st0" points="184,156.6 184,153.5 177.4,153.4 177.4,156.6   "/>
		<polygon class="st0" points="156.5,153.3 149,153.2 149,156.9 156.5,156.8   "/>
		<polygon class="st0" points="142.8,153.2 120.6,153 120.6,157.1 142.8,156.9   "/>
		<path class="st0" d="M115.4,153c-20.3-0.1-11.7-0.1-23.2-0.2v4.4c8.4,0,3.5,0,23.2-0.2V153z"/>
		<polygon class="st0" points="87.9,157.3 87.9,152.8 63.8,152.6 63.8,157.5   "/>
		<path class="st0" d="M60.5,157.5v-4.9c-33.3-0.2,15.1,0.1-60.5-0.4l0,5.7C85.2,157.3,17.3,157.8,60.5,157.5z"/>
		<polygon class="st0" points="300.6,149.6 300.6,148.3 298,148.2 298,149.7   "/>
		<polygon class="st0" points="286.9,149.7 286.9,148.2 283.8,148.1 283.8,149.8   "/>
		<polygon class="st0" points="273.1,149.9 273.1,148.1 269.6,148 269.6,149.9   "/>
		<polygon class="st0" points="259.4,150 259.4,148 255.4,147.9 255.4,150   "/>
		<polygon class="st0" points="245.7,150.1 245.7,147.9 241.2,147.8 241.2,150.1   "/>
		<polygon class="st0" points="232,150.2 232,147.8 227,147.7 227,150.2   "/>
		<polygon class="st0" points="218.3,150.3 218.3,147.6 212.8,147.6 212.8,150.3   "/>
		<polygon class="st0" points="204.6,150.4 204.6,147.5 198.6,147.5 198.6,150.4   "/>
		<polygon class="st0" points="190.8,150.5 190.8,147.4 184.5,147.4 184.5,150.5   "/>
		<polygon class="st0" points="177.1,150.6 177.1,147.3 170.3,147.3 170.3,150.6   "/>
		<polygon class="st0" points="156.1,147.2 156.1,150.7 163.4,150.7 163.4,147.2   "/>
		<polygon class="st0" points="149.7,150.8 149.7,147.1 141.9,147.1 141.9,150.8   "/>
		<polygon class="st0" points="136,150.9 136,147 127.7,147 127.7,150.9   "/>
		<polygon class="st0" points="113.5,146.9 113.5,151 122.2,151 122.2,147   "/>
		<polygon class="st0" points="99.3,151.1 108.5,151.1 108.5,146.9 99.3,146.8   "/>
		<polygon class="st0" points="94.8,151.1 94.8,146.8 85.1,146.7 85.1,151.2   "/>
		<polygon class="st0" points="81.1,151.2 81.1,146.7 70.9,146.6 70.9,151.3   "/>
		<polygon class="st0" points="67.4,151.3 67.4,146.6 56.8,146.5 56.8,151.4   "/>
		<polygon class="st0" points="42.6,146.4 42.6,151.5 53.6,151.4 53.6,146.5   "/>
		<polygon class="st0" points="28.4,146.3 28.4,151.6 39.9,151.5 39.9,146.4   "/>
		<polygon class="st0" points="26.2,151.6 26.2,146.3 0,146.1 0,151.8   "/>
		<polygon class="st0" points="225.1,144.1 225.1,141.6 219.9,141.6 219.9,144.2   "/>
		<polygon class="st0" points="197.7,144.3 197.7,141.4 191.5,141.4 191.5,144.4   "/>
		<polygon class="st0" points="184,144.4 184,141.3 177.4,141.3 177.4,144.5   "/>
		<polygon class="st0" points="163.2,141.2 163.2,144.6 170.3,144.5 170.3,141.2   "/>
		<polygon class="st0" points="156.5,144.6 156.5,141.1 149,141.1 149,144.7   "/>
		<polygon class="st0" points="142.8,144.7 142.8,141 134.8,141 134.8,144.8   "/>
		<polygon class="st0" points="129.1,144.8 129.1,140.9 106.4,140.7 106.4,145   "/>
		<path class="st0" d="M101.7,145v-4.3c-80.5-0.6-32-0.2-101.7-0.7l0,5.7C20,145.6,81.4,145.2,101.7,145z"/>
		<polygon class="st0" points="328,137.3 328,136.3 326.4,136.3 326.4,137.3   "/>
		<polygon class="st0" points="300.6,137.5 300.6,136.1 298,136.1 298,137.5   "/>
		<polygon class="st0" points="273.1,137.7 273.1,135.9 269.6,135.9 269.6,137.7   "/>
		<polygon class="st0" points="259.4,137.8 259.4,135.8 255.4,135.8 255.4,137.8   "/>
		<polygon class="st0" points="245.7,137.9 245.7,135.7 241.2,135.7 241.2,137.9   "/>
		<polygon class="st0" points="232,138 232,135.6 227,135.5 227,138   "/>
		<polygon class="st0" points="218.3,138.1 218.3,135.5 212.8,135.4 212.8,138.1   "/>
		<polygon class="st0" points="204.6,138.2 204.6,135.4 198.6,135.3 198.6,138.2   "/>
		<polygon class="st0" points="190.8,138.3 190.8,135.3 184.5,135.2 184.5,138.3   "/>
		<polygon class="st0" points="177.1,138.4 177.1,135.2 170.3,135.1 170.3,138.4   "/>
		<polygon class="st0" points="163.4,138.5 163.4,135.1 156.1,135 156.1,138.5   "/>
		<polygon class="st0" points="149.7,138.6 149.7,135 141.9,134.9 141.9,138.6   "/>
		<polygon class="st0" points="127.7,134.8 127.7,138.7 136,138.7 136,134.9   "/>
		<polygon class="st0" points="113.5,138.8 122.2,138.8 122.2,134.8 113.5,134.7   "/>
		<polygon class="st0" points="108.5,138.9 108.5,134.7 99.3,134.6 99.3,139   "/>
		<polygon class="st0" points="85.1,134.5 85.1,139 94.8,139 94.8,134.6   "/>
		<polygon class="st0" points="70.9,134.4 70.9,139.1 81.1,139.1 81.1,134.5   "/>
		<polygon class="st0" points="56.8,134.3 56.8,139.3 67.4,139.2 67.4,134.4   "/>
		<polygon class="st0" points="42.6,134.2 42.6,139.4 53.6,139.3 53.6,134.3   "/>
		<polygon class="st0" points="28.4,134.1 28.4,139.4 39.9,139.4 39.9,134.2   "/>
		<polygon class="st0" points="14.2,134 14.2,139.5 26.2,139.5 26.2,134.1   "/>
		<polygon class="st0" points="12.5,139.6 12.5,134 0,133.9 0,139.7   "/>
		<polygon class="st0" points="238.8,131.8 238.8,129.5 234.1,129.5 234.1,131.9   "/>
		<polygon class="st0" points="211.4,132.1 211.4,129.3 205.7,129.3 205.7,132.1   "/>
		<polygon class="st0" points="184,132.3 184,129.1 177.4,129.1 177.4,132.3   "/>
		<polygon class="st0" points="163.2,129 163.2,132.4 170.3,132.4 170.3,129   "/>
		<polygon class="st0" points="156.5,132.5 156.5,128.9 149,128.9 149,132.5   "/>
		<polygon class="st0" points="142.8,132.6 142.8,128.8 120.6,128.7 120.6,132.7   "/>
		<path class="st0" d="M115.4,132.7v-4.1c-20.3-0.1-11.7-0.1-23.2-0.2v4.4C100.7,132.9,95.7,132.9,115.4,132.7z"/>
		<path class="st0" d="M87.9,132.9v-4.5c-72.6-0.5-17.6-0.1-87.9-0.6l0,5.7C54,133.2,16.5,133.5,87.9,132.9z"/>
		<polygon class="st0" points="314.3,125.2 314.3,124 312.2,124 312.2,125.2   "/>
		<polygon class="st0" points="286.9,125.4 286.9,123.8 283.8,123.8 283.8,125.4   "/>
		<polygon class="st0" points="273.1,125.5 273.1,123.7 269.6,123.7 269.6,125.5   "/>
		<polygon class="st0" points="259.4,125.6 259.4,123.6 255.4,123.6 255.4,125.6   "/>
		<polygon class="st0" points="245.7,125.7 245.7,123.5 241.2,123.5 241.2,125.7   "/>
		<polygon class="st0" points="232,125.8 232,123.4 227,123.4 227,125.9   "/>
		<polygon class="st0" points="218.3,125.9 218.3,123.3 212.8,123.3 212.8,126   "/>
		<polygon class="st0" points="204.6,126 204.6,123.2 198.6,123.2 198.6,126.1   "/>
		<polygon class="st0" points="190.8,126.1 190.8,123.1 184.5,123.1 184.5,126.2   "/>
		<polygon class="st0" points="177.1,126.2 177.1,123 170.3,123 170.3,126.3   "/>
		<polygon class="st0" points="163.4,122.9 156.1,122.8 156.1,126.4 163.4,126.3   "/>
		<polygon class="st0" points="149.7,126.4 149.7,122.8 141.9,122.7 141.9,126.5   "/>
		<polygon class="st0" points="127.7,126.6 136,126.5 136,122.7 127.7,122.6   "/>
		<polygon class="st0" points="122.2,126.6 122.2,122.6 113.5,122.5 113.5,126.7   "/>
		<polygon class="st0" points="99.3,126.8 108.5,126.7 108.5,122.5 99.3,122.4   "/>
		<polygon class="st0" points="94.8,126.8 94.8,122.4 85.1,122.3 85.1,126.9   "/>
		<polygon class="st0" points="70.9,122.2 70.9,127 81.1,126.9 81.1,122.3   "/>
		<polygon class="st0" points="56.8,122.1 56.8,127.1 67.4,127 67.4,122.2   "/>
		<polygon class="st0" points="42.6,122 42.6,127.2 53.6,127.1 53.6,122.1   "/>
		<polygon class="st0" points="28.4,121.9 28.4,127.3 39.9,127.2 39.9,122   "/>
		<polygon class="st0" points="26.2,127.3 26.2,121.9 0,121.7 0,127.5   "/>
		<polygon class="st0" points="197.7,120 197.7,117.1 191.5,117 191.5,120   "/>
		<polygon class="st0" points="184,120.1 184,117 177.4,116.9 177.4,120.1   "/>
		<polygon class="st0" points="163.2,116.8 163.2,120.2 170.3,120.2 170.3,116.9   "/>
		<polygon class="st0" points="156.5,116.8 149,116.7 149,120.3 156.5,120.3   "/>
		<polygon class="st0" points="142.8,120.4 142.8,116.7 134.8,116.6 134.8,120.4   "/>
		<polygon class="st0" points="120.6,120.5 129.1,120.5 129.1,116.6 120.6,116.5   "/>
		<polygon class="st0" points="106.4,116.4 106.4,120.6 115.4,120.6 115.4,116.5   "/>
		<path class="st0" d="M101.7,120.7v-4.3c-80.5-0.6-32-0.2-101.7-0.7l0,5.7C20,121.3,81.4,120.8,101.7,120.7z"/>
		<polygon class="st0" points="327.4,112.9 328,112.9 328,112 327.4,112 327,111.9 326.4,111.9 326.4,112.9 327,112.9   "/>
		<polygon class="st0" points="299.8,113.1 300.6,113.1 300.6,111.7 299.8,111.7 298.8,111.7 298,111.7 298,113.1 298.8,113.1   "/>
		<polygon class="st0" points="273.1,113.3 273.1,111.5 269.6,111.5 269.6,113.4   "/>
		<polygon class="st0" points="259.4,113.4 259.4,111.4 255.4,111.4 255.4,113.5   "/>
		<polygon class="st0" points="245.7,113.5 245.7,111.3 241.2,111.3 241.2,113.6   "/>
		<polygon class="st0" points="232,113.6 232,111.2 227,111.2 227,113.7   "/>
		<polygon class="st0" points="218.3,113.7 218.3,111.1 216.8,111.1 212.8,111.1 212.8,113.8   "/>
		<polygon class="st0" points="204.6,113.8 204.6,111 198.6,111 198.6,113.9   "/>
		<polygon class="st0" points="190.8,113.9 190.8,110.9 184.5,110.9 184.5,114   "/>
		<polygon class="st0" points="177.1,114 177.1,110.8 170.3,110.8 170.3,114.1   "/>
		<polygon class="st0" points="163.4,110.7 156.1,110.7 156.1,114.2 163.4,114.1   "/>
		<polygon class="st0" points="149.7,110.6 141.9,110.6 141.9,114.3 149.7,114.2   "/>
		<polygon class="st0" points="136,114.3 136,110.5 127.7,110.5 127.7,114.4   "/>
		<polygon class="st0" points="113.5,114.5 122.2,114.4 122.2,110.4 113.5,110.4   "/>
		<polygon class="st0" points="108.5,114.5 108.5,110.3 99.3,110.3 99.3,114.6   "/>
		<polygon class="st0" points="94.8,114.6 94.8,110.2 85.1,110.2 85.1,114.7   "/>
		<polygon class="st0" points="70.9,110.1 70.9,114.8 81.1,114.7 81.1,110.1   "/>
		<polygon class="st0" points="56.8,110 56.8,114.9 67.4,114.8 67.4,110   "/>
		<polygon class="st0" points="42.6,109.9 42.6,115 53.6,114.9 53.6,109.9   "/>
		<polygon class="st0" points="28.4,109.8 28.4,115.1 39.9,115 39.9,109.9   "/>
		<polygon class="st0" points="14.2,109.7 14.2,115.2 26.2,115.1 26.2,109.8   "/>
		<polygon class="st0" points="12.5,115.2 12.5,109.7 0,109.6 0,115.3   "/>
		<polygon class="st0" points="238.8,107.5 238.8,105.2 234.1,105.2 234.1,107.5   "/>
		<polygon class="st0" points="211.4,107.7 211.4,105 205.7,104.9 205.7,107.7   "/>
		<polygon class="st0" points="184,107.9 184,104.8 177.4,104.7 177.4,108   "/>
		<polygon class="st0" points="156.5,104.6 149,104.5 149,108.2 156.5,108.1   "/>
		<polygon class="st0" points="120.6,104.3 120.6,108.4 142.8,108.2 142.8,104.5   "/>
		<path class="st0" d="M115.4,108.4v-4.1c-20.3-0.1-11.7-0.1-23.2-0.2v4.4C100.7,108.5,95.7,108.5,115.4,108.4z"/>
		<polygon class="st0" points="87.9,108.6 87.9,104.1 63.8,103.9 63.8,108.8   "/>
		<polygon class="st0" points="60.5,108.8 60.5,103.9 0,103.5 0,109.2   "/>
		<polygon class="st0" points="299.8,101 300.6,101 300.6,99.6 299.8,99.6 298.8,99.6 298,99.6 298,101 298.8,101   "/>
		<polygon class="st0" points="286.9,101 286.9,99.5 283.8,99.4 283.8,101.1   "/>
		<polygon class="st0" points="273.1,101.2 273.1,99.4 269.6,99.3 269.6,101.2   "/>
		<polygon class="st0" points="259.4,101.3 259.4,99.3 255.4,99.2 255.4,101.3   "/>
		<polygon class="st0" points="245.7,101.4 245.7,99.2 241.2,99.1 241.2,101.4   "/>
		<polygon class="st0" points="232,101.5 232,99.1 227,99 227,101.5   "/>
		<polygon class="st0" points="218.3,101.6 218.3,99 212.8,98.9 212.8,101.6   "/>
		<polygon class="st0" points="204.6,101.7 204.6,98.9 198.6,98.8 198.6,101.7   "/>
		<polygon class="st0" points="190.8,101.8 190.8,98.8 184.5,98.7 184.5,101.8   "/>
		<polygon class="st0" points="177.1,101.9 177.1,98.7 170.3,98.6 170.3,101.9   "/>
		<polygon class="st0" points="163.4,98.6 156.1,98.5 156.1,102 163.4,102   "/>
		<polygon class="st0" points="149.7,98.5 141.9,98.4 141.9,102.1 149.7,102.1   "/>
		<polygon class="st0" points="127.7,102.2 136,102.2 136,98.4 127.7,98.3   "/>
		<polygon class="st0" points="122.2,102.3 122.2,98.3 113.5,98.2 113.5,102.3   "/>
		<polygon class="st0" points="99.3,102.4 108.5,102.4 108.5,98.2 99.3,98.1   "/>
		<polygon class="st0" points="94.8,102.5 94.8,98.1 85.1,98 85.1,102.5   "/>
		<polygon class="st0" points="81.1,102.6 81.1,98 70.9,97.9 70.9,102.6   "/>
		<polygon class="st0" points="67.4,102.7 67.4,97.9 56.8,97.8 56.8,102.7   "/>
		<polygon class="st0" points="42.6,97.7 42.6,102.8 53.6,102.8 53.6,97.8   "/>
		<polygon class="st0" points="28.4,97.6 28.4,102.9 39.9,102.8 39.9,97.7   "/>
		<polygon class="st0" points="26.2,102.9 26.2,97.6 0,97.4 0,103.1   "/>
		<polygon class="st0" points="197.7,95.6 197.7,92.7 191.5,92.7 191.5,95.7   "/>
		<polygon class="st0" points="184,95.7 184,92.6 177.4,92.6 177.4,95.8   "/>
		<polygon class="st0" points="163.2,92.5 163.2,95.9 170.3,95.8 170.3,92.5   "/>
		<polygon class="st0" points="156.5,92.4 149,92.4 149,96 156.5,95.9   "/>
		<polygon class="st0" points="142.8,92.3 134.8,92.3 134.8,96.1 142.8,96   "/>
		<polygon class="st0" points="106.4,92.1 106.4,96.3 129.1,96.1 129.1,92.2   "/>
		<polygon class="st0" points="101.7,96.3 101.7,92 0,91.3 0,97   "/>
		<polygon class="st0" points="327.4,88.6 328,88.6 328,87.6 327.4,87.6 327,87.6 326.4,87.6 326.4,88.6 327,88.6   "/>
		<polygon class="st0" points="300.6,88.8 300.6,87.4 299.8,87.4 298,87.4 298,88.8   "/>
		<polygon class="st0" points="273.1,89 273.1,87.2 270.7,87.2 269.6,87.2 269.6,89   "/>
		<polygon class="st0" points="245.7,89.2 245.7,87 241.2,87 241.2,89.2   "/>
		<polygon class="st0" points="232,89.3 232,86.9 227,86.8 227,89.3   "/>
		<polygon class="st0" points="218.3,89.4 218.3,86.8 216.8,86.8 212.8,86.7 212.8,89.4   "/>
		<polygon class="st0" points="204.6,89.5 204.6,86.7 198.6,86.6 198.6,89.5   "/>
		<polygon class="st0" points="190.8,89.6 190.8,86.6 184.5,86.5 184.5,89.6   "/>
		<polygon class="st0" points="177.1,89.7 177.1,86.5 170.3,86.4 170.3,89.7   "/>
		<polygon class="st0" points="163.4,86.4 156.1,86.3 156.1,89.8 163.4,89.8   "/>
		<polygon class="st0" points="149.7,86.3 141.9,86.2 141.9,89.9 149.7,89.9   "/>
		<polygon class="st0" points="136,90 136,86.2 127.7,86.1 127.7,90.1   "/>
		<polygon class="st0" points="113.5,90.2 122.2,90.1 122.2,86.1 113.5,86   "/>
		<polygon class="st0" points="108.5,90.2 108.5,86 99.3,85.9 99.3,90.3   "/>
		<polygon class="st0" points="85.1,85.8 85.1,90.4 94.8,90.3 94.8,85.9   "/>
		<polygon class="st0" points="70.9,85.7 70.9,90.5 81.1,90.4 81.1,85.8   "/>
		<polygon class="st0" points="56.8,85.6 56.8,90.6 67.4,90.5 67.4,85.7   "/>
		<polygon class="st0" points="42.6,85.5 42.6,90.7 53.6,90.6 53.6,85.6   "/>
		<polygon class="st0" points="28.4,85.4 28.4,90.8 39.9,90.7 39.9,85.5   "/>
		<polygon class="st0" points="14.2,85.3 14.2,90.9 26.2,90.8 26.2,85.4   "/>
		<polygon class="st0" points="12.5,90.9 12.5,85.3 0,85.2 0,91   "/>
		<polygon class="st0" points="211.4,83.4 211.4,80.6 205.7,80.6 205.7,83.4   "/>
		<polygon class="st0" points="184,83.6 184,80.4 177.4,80.4 177.4,83.6   "/>
		<polygon class="st0" points="163.2,80.3 163.2,83.7 170.3,83.7 170.3,80.3   "/>
		<polygon class="st0" points="156.5,80.2 149,80.2 149,83.8 156.5,83.8   "/>
		<polygon class="st0" points="120.6,84 142.8,83.9 142.8,80.1 120.6,80   "/>
		<path class="st0" d="M115.4,84.1v-4.1c-20.3-0.1-11.7-0.1-23.2-0.2v4.4C100.7,84.2,95.7,84.2,115.4,84.1z"/>
		<polygon class="st0" points="87.9,84.2 87.9,79.8 0,79.1 0,84.9   "/>
		<polygon class="st0" points="313.6,76.5 314.3,76.5 314.3,75.3 313.6,75.3 312.9,75.3 312.2,75.3 312.2,76.5 312.9,76.5   "/>
		<polygon class="st0" points="285.9,76.7 286.9,76.7 286.9,75.1 285.9,75.1 284.7,75.1 283.8,75.1 283.8,76.7 284.7,76.7   "/>
		<polygon class="st0" points="272.1,76.8 273.1,76.8 273.1,75 272.1,75 270.7,75 269.6,75 269.6,76.8   "/>
		<polygon class="st0" points="259.4,76.9 259.4,74.9 255.4,74.9 255.4,76.9   "/>
		<polygon class="st0" points="245.7,77 245.7,74.8 241.2,74.8 241.2,77   "/>
		<polygon class="st0" points="232,77.1 232,74.7 227,74.7 227,77.2   "/>
		<polygon class="st0" points="218.3,77.2 218.3,74.6 212.8,74.6 212.8,77.3   "/>
		<polygon class="st0" points="204.6,77.3 204.6,74.5 198.6,74.5 198.6,77.4   "/>
		<polygon class="st0" points="190.8,77.4 190.8,74.4 184.5,74.4 184.5,77.5   "/>
		<polygon class="st0" points="177.1,77.5 177.1,74.3 170.3,74.3 170.3,77.6   "/>
		<polygon class="st0" points="163.4,74.2 156.1,74.2 156.1,77.7 163.4,77.6   "/>
		<polygon class="st0" points="149.7,74.1 141.9,74.1 141.9,77.8 149.7,77.7   "/>
		<polygon class="st0" points="127.7,77.9 136,77.8 136,74 127.7,73.9   "/>
		<polygon class="st0" points="122.2,77.9 122.2,73.9 113.5,73.8 113.5,78   "/>
		<polygon class="st0" points="99.3,78.1 108.5,78 108.5,73.8 99.3,73.7   "/>
		<polygon class="st0" points="94.8,78.1 94.8,73.7 85.1,73.6 85.1,78.2   "/>
		<polygon class="st0" points="70.9,73.5 70.9,78.3 81.1,78.2 81.1,73.6   "/>
		<polygon class="st0" points="56.8,73.4 56.8,78.4 67.4,78.3 67.4,73.5   "/>
		<polygon class="st0" points="53.6,78.4 53.6,73.4 28.4,73.2 28.4,78.6   "/>
		<polygon class="st0" points="26.2,78.6 26.2,73.2 0,73 0,78.8   "/>
		<polygon class="st0" points="197.7,71.3 197.7,68.4 191.5,68.3 191.5,71.3   "/>
		<polygon class="st0" points="184,71.4 184,68.3 177.4,68.2 177.4,71.4   "/>
		<polygon class="st0" points="163.2,68.1 163.2,71.5 170.3,71.5 170.3,68.2   "/>
		<polygon class="st0" points="156.5,68.1 149,68 149,71.6 156.5,71.6   "/>
		<polygon class="st0" points="142.8,71.7 142.8,68 134.8,67.9 134.8,71.7   "/>
		<polygon class="st0" points="120.6,71.8 129.1,71.8 129.1,67.9 120.6,67.8   "/>
		<polygon class="st0" points="106.4,67.7 106.4,71.9 115.4,71.9 115.4,67.8   "/>
		<polygon class="st0" points="101.7,72 101.7,67.7 0,67 0,72.7   "/>
		<polygon class="st0" points="327.4,64.2 328,64.2 328,63.3 327.4,63.3 327,63.3 326.4,63.2 326.4,64.2 327,64.2   "/>
		<polygon class="st0" points="299.8,64.4 300.6,64.4 300.6,63 299.8,63 298.8,63 298,63 298,64.4 298.8,64.4   "/>
		<polygon class="st0" points="272.1,64.6 273.1,64.6 273.1,62.8 272.1,62.8 269.6,62.8 269.6,64.7 270.7,64.7   "/>
		<polygon class="st0" points="259.4,64.7 259.4,62.7 255.4,62.7 255.4,64.8   "/>
		<polygon class="st0" points="245.7,64.8 245.7,62.6 241.2,62.6 241.2,64.9   "/>
		<polygon class="st0" points="232,64.9 232,62.5 227,62.5 227,65   "/>
		<polygon class="st0" points="218.3,65 218.3,62.4 212.8,62.4 212.8,65.1   "/>
		<polygon class="st0" points="204.6,65.1 204.6,62.3 198.6,62.3 198.6,65.2   "/>
		<polygon class="st0" points="190.8,65.2 190.8,62.2 184.5,62.2 184.5,65.3   "/>
		<polygon class="st0" points="177.1,65.3 177.1,62.1 170.3,62.1 170.3,65.4   "/>
		<polygon class="st0" points="163.4,62 156.1,62 156.1,65.5 161.4,65.5 163.4,65.4   "/>
		<polygon class="st0" points="149.7,61.9 141.9,61.9 141.9,65.6 149.7,65.5   "/>
		<polygon class="st0" points="136,65.6 136,61.8 127.7,61.8 127.7,65.7   "/>
		<polygon class="st0" points="113.5,65.8 122.2,65.7 122.2,61.7 113.5,61.7   "/>
		<polygon class="st0" points="108.5,65.8 108.5,61.6 99.3,61.6 99.3,65.9   "/>
		<polygon class="st0" points="94.8,65.9 94.8,61.5 85.1,61.5 85.1,66   "/>
		<polygon class="st0" points="70.9,61.4 70.9,66.1 81.1,66 81.1,61.4   "/>
		<polygon class="st0" points="56.8,61.3 56.8,66.2 67.4,66.1 67.4,61.3   "/>
		<polygon class="st0" points="42.6,61.2 42.6,66.3 53.6,66.2 53.6,61.2   "/>
		<polygon class="st0" points="28.4,61.1 28.4,66.4 39.9,66.3 39.9,61.2   "/>
		<polygon class="st0" points="14.2,61 14.2,66.5 26.2,66.4 26.2,61.1   "/>
		<polygon class="st0" points="12.5,66.5 12.5,61 0,60.9 0,66.6   "/>
		<polygon class="st0" points="238.8,58.8 238.8,56.5 234.1,56.5 234.1,58.8   "/>
		<polygon class="st0" points="211.4,59 211.4,56.3 205.7,56.3 205.7,59.1   "/>
		<polygon class="st0" points="184,59.2 184,56.1 177.4,56 177.4,59.3   "/>
		<polygon class="st0" points="156.5,55.9 149,55.8 149,59.5 156.5,59.4   "/>
		<polygon class="st0" points="120.6,55.6 120.6,59.7 142.8,59.5 142.8,55.8   "/>
		<path class="st0" d="M115.4,59.7v-4.1c-20.3-0.1-11.7-0.1-23.2-0.2v4.4C100.7,59.8,95.7,59.9,115.4,59.7z"/>
		<polygon class="st0" points="87.9,59.9 87.9,55.4 63.8,55.2 63.8,60.1   "/>
		<polygon class="st0" points="60.5,60.1 60.5,55.2 0,54.8 0,60.5   "/>
		<polygon class="st0" points="299.8,52.3 300.6,52.3 300.6,50.9 299.8,50.9 298.8,50.9 298,50.9 298,52.3 298.8,52.3   "/>
		<polygon class="st0" points="286.9,52.4 286.9,50.8 283.8,50.8 283.8,52.4   "/>
		<polygon class="st0" points="273.1,52.5 273.1,50.7 269.6,50.6 269.6,52.5   "/>
		<polygon class="st0" points="259.4,52.6 259.4,50.6 255.4,50.5 255.4,52.6   "/>
		<polygon class="st0" points="245.7,52.7 245.7,50.5 241.2,50.4 241.2,52.7   "/>
		<polygon class="st0" points="232,52.8 232,50.4 228.4,50.3 227,50.3 227,52.8   "/>
		<polygon class="st0" points="218.3,52.9 218.3,50.3 212.8,50.2 212.8,52.9   "/>
		<polygon class="st0" points="204.6,53 204.6,50.2 198.6,50.1 198.6,53   "/>
		<polygon class="st0" points="190.8,53.1 190.8,50.1 184.5,50 184.5,53.1   "/>
		<polygon class="st0" points="177.1,53.2 177.1,50 170.3,49.9 170.3,53.2   "/>
		<polygon class="st0" points="163.4,49.9 156.1,49.8 156.1,53.3 163.4,53.3   "/>
		<polygon class="st0" points="149.7,49.8 141.9,49.7 141.9,53.4 149.7,53.4   "/>
		<polygon class="st0" points="127.7,53.5 136,53.5 136,49.7 133.8,49.6 127.7,49.6   "/>
		<polygon class="st0" points="122.2,53.6 122.2,49.6 113.5,49.5 113.5,53.6   "/>
		<polygon class="st0" points="99.3,53.7 108.5,53.7 108.5,49.5 99.3,49.4   "/>
		<polygon class="st0" points="94.8,53.8 94.8,49.4 85.1,49.3 85.1,53.8   "/>
		<polygon class="st0" points="81.1,53.9 81.1,49.3 70.9,49.2 70.9,53.9   "/>
		<polygon class="st0" points="67.4,54 67.4,49.2 56.8,49.1 56.8,54   "/>
		<polygon class="st0" points="42.6,49 42.6,54.1 53.6,54.1 53.6,49.1   "/>
		<polygon class="st0" points="28.4,48.9 28.4,54.2 39.9,54.1 39.9,49   "/>
		<polygon class="st0" points="26.2,54.2 26.2,48.9 0,48.7 0,54.4   "/>
		<polygon class="st0" points="225.1,46.7 225.1,44.2 219.9,44.2 219.9,46.8   "/>
		<polygon class="st0" points="197.7,46.9 197.7,44 191.5,44 191.5,47   "/>
		<polygon class="st0" points="184,47 184,43.9 177.4,43.9 177.4,47.1   "/>
		<polygon class="st0" points="163.2,43.8 163.2,47.2 170.3,47.1 170.3,43.8   "/>
		<polygon class="st0" points="156.5,43.7 149,43.7 149,47.3 156.5,47.2   "/>
		<polygon class="st0" points="134.8,43.6 134.8,47.4 142.8,47.3 142.8,43.6   "/>
		<polygon class="st0" points="106.4,43.4 106.4,47.6 129.1,47.4 129.1,43.5   "/>
		<polygon class="st0" points="101.7,47.6 101.7,43.3 0,42.6 0,48.4   "/>
		<polygon class="st0" points="327.4,39.9 328,39.9 328,38.9 327.4,38.9 327,38.9 326.4,38.9 326.4,39.9 327,39.9   "/>
		<polygon class="st0" points="299.8,40.1 300.6,40.1 300.6,38.7 299.8,38.7 298.8,38.7 298,38.7 298,40.1 298.8,40.1   "/>
		<polygon class="st0" points="272.1,40.3 273.1,40.3 273.1,38.5 269.6,38.5 269.6,40.3   "/>
		<polygon class="st0" points="259.4,40.4 259.4,38.4 255.4,38.4 255.4,40.4   "/>
		<polygon class="st0" points="245.7,40.5 245.7,38.3 241.2,38.3 241.2,40.5   "/>
		<polygon class="st0" points="232,40.6 232,38.2 227,38.1 227,40.6   "/>
		<polygon class="st0" points="218.3,40.7 218.3,38.1 212.8,38 212.8,40.7   "/>
		<polygon class="st0" points="204.6,40.8 204.6,38 198.6,37.9 198.6,40.8   "/>
		<polygon class="st0" points="190.8,40.9 190.8,37.9 184.5,37.8 184.5,40.9   "/>
		<polygon class="st0" points="177.1,41 177.1,37.8 170.3,37.7 170.3,41   "/>
		<polygon class="st0" points="163.4,37.7 156.1,37.6 156.1,41.2 163.4,41.1   "/>
		<polygon class="st0" points="149.7,37.6 141.9,37.5 141.9,41.3 149.7,41.2   "/>
		<polygon class="st0" points="127.7,37.4 127.7,41.4 136,41.3 136,37.5   "/>
		<polygon class="st0" points="113.5,41.5 122.2,41.4 122.2,37.4 113.5,37.3   "/>
		<polygon class="st0" points="108.5,41.5 108.5,37.3 99.3,37.2 99.3,41.6   "/>
		<polygon class="st0" points="85.1,37.1 85.1,41.7 94.8,41.6 94.8,37.2   "/>
		<polygon class="st0" points="70.9,37 70.9,41.8 81.1,41.7 81.1,37.1   "/>
		<polygon class="st0" points="56.8,36.9 56.8,41.9 67.4,41.8 67.4,37   "/>
		<polygon class="st0" points="42.6,36.8 42.6,42 53.6,41.9 53.6,36.9   "/>
		<polygon class="st0" points="28.4,36.7 28.4,42.1 39.9,42 39.9,36.8   "/>
		<polygon class="st0" points="14.2,36.6 14.2,42.2 26.2,42.1 26.2,36.7   "/>
		<polygon class="st0" points="12.5,42.2 12.5,36.6 0,36.5 0,42.3   "/>
		<polygon class="st0" points="238.8,34.5 238.8,32.2 234.1,32.1 234.1,34.5   "/>
		<polygon class="st0" points="211.4,34.7 211.4,31.9 205.7,31.9 205.7,34.7   "/>
		<polygon class="st0" points="184,34.9 184,31.7 177.4,31.7 177.4,34.9   "/>
		<polygon class="st0" points="163.2,31.6 163.2,35 170.3,35 170.3,31.6   "/>
		<polygon class="st0" points="156.5,31.5 149,31.5 149,35.1 156.5,35.1   "/>
		<polygon class="st0" points="120.6,31.3 120.6,35.3 142.8,35.2 142.8,31.4   "/>
		<path class="st0" d="M115.4,35.4v-4.1c-20.3-0.1-11.7-0.1-23.2-0.2v4.4C100.7,35.5,95.7,35.5,115.4,35.4z"/>
		<polygon class="st0" points="87.9,35.5 87.9,31.1 0,30.4 0,36.2   "/>
		<polygon class="st0" points="313.6,27.8 314.3,27.8 314.3,26.6 313.6,26.6 312.9,26.6 312.2,26.6 312.2,27.8 312.9,27.8   "/>
		<polygon class="st0" points="285.9,28 286.9,28 286.9,26.4 285.9,26.4 284.7,26.4 283.8,26.4 283.8,28 284.7,28   "/>
		<polygon class="st0" points="273.1,28.1 273.1,26.3 269.6,26.3 269.6,28.1   "/>
		<polygon class="st0" points="259.4,28.2 259.4,26.2 255.4,26.2 255.4,28.2   "/>
		<polygon class="st0" points="245.7,28.3 245.7,26.1 241.2,26.1 241.2,28.3   "/>
		<polygon class="st0" points="232,28.4 232,26 227,26 227,28.5   "/>
		<polygon class="st0" points="218.3,28.5 218.3,25.9 212.8,25.9 212.8,28.6   "/>
		<polygon class="st0" points="204.6,28.6 204.6,25.8 198.6,25.8 198.6,28.7   "/>
		<polygon class="st0" points="190.8,28.7 190.8,25.7 184.5,25.7 184.5,28.8   "/>
		<polygon class="st0" points="177.1,28.8 177.1,25.6 170.3,25.6 170.3,28.9   "/>
		<polygon class="st0" points="163.4,25.5 156.1,25.5 156.1,29 163.4,28.9   "/>
		<polygon class="st0" points="141.9,25.4 141.9,29.1 149.7,29 149.7,25.4   "/>
		<polygon class="st0" points="136,29.1 136,25.3 127.7,25.3 127.7,29.2   "/>
		<polygon class="st0" points="113.5,25.2 113.5,29.3 122.2,29.2 122.2,25.2   "/>
		<polygon class="st0" points="99.3,29.4 108.5,29.3 108.5,25.1 99.3,25   "/>
		<polygon class="st0" points="94.8,29.4 94.8,25 85.1,25 85.1,29.5   "/>
		<polygon class="st0" points="70.9,24.9 70.9,29.6 81.1,29.5 81.1,24.9   "/>
		<polygon class="st0" points="56.8,24.7 56.8,29.7 67.4,29.6 67.4,24.8   "/>
		<polygon class="st0" points="42.6,24.6 42.6,29.8 53.6,29.7 53.6,24.7   "/>
		<polygon class="st0" points="28.4,24.6 28.4,29.9 39.9,29.8 39.9,24.6   "/>
		<polygon class="st0" points="26.2,29.9 26.2,24.5 0,24.3 0,30.1   "/>
		<polygon class="st0" points="197.7,22.6 197.7,19.7 191.5,19.6 191.5,22.6   "/>
		<polygon class="st0" points="184,22.7 184,19.6 177.4,19.5 177.4,22.7   "/>
		<polygon class="st0" points="163.2,22.8 170.3,22.8 170.3,19.5 163.2,19.4   "/>
		<polygon class="st0" points="149,19.3 149,22.9 156.5,22.9 156.5,19.4   "/>
		<polygon class="st0" points="134.8,19.2 134.8,23 142.8,23 142.8,19.3   "/>
		<polygon class="st0" points="120.6,19.1 120.6,23.1 129.1,23.1 129.1,19.2   "/>
		<polygon class="st0" points="106.4,19 106.4,23.3 115.4,23.2 115.4,19.1   "/>
		<polygon class="st0" points="101.7,23.3 101.7,19 0,18.3 0,24   "/>
		<polygon class="st0" points="327.4,15.5 328,15.5 328,14.6 327.4,14.6 327,14.6 326.4,14.6 326.4,15.5 327,15.5   "/>
		<polygon class="st0" points="299.8,15.7 300.6,15.7 300.6,14.4 299.8,14.3 298.8,14.3 298,14.3 298,15.8 298.8,15.7   "/>
		<polygon class="st0" points="273.1,15.9 273.1,14.1 269.6,14.1 269.6,16   "/>
		<polygon class="st0" points="259.4,16 259.4,14 255.4,14 255.4,16.1   "/>
		<polygon class="st0" points="245.7,16.1 245.7,13.9 241.2,13.9 241.2,16.2   "/>
		<polygon class="st0" points="232,16.2 232,13.8 227,13.8 227,16.3   "/>
		<polygon class="st0" points="218.3,16.4 218.3,13.7 212.8,13.7 212.8,16.4   "/>
		<polygon class="st0" points="204.6,16.5 204.6,13.6 198.6,13.6 198.6,16.5   "/>
		<polygon class="st0" points="190.8,16.6 190.8,13.5 184.5,13.5 184.5,16.6   "/>
		<polygon class="st0" points="177.1,16.7 177.1,13.4 170.3,13.4 170.3,16.7   "/>
		<polygon class="st0" points="163.4,13.3 156.1,13.3 156.1,16.8 163.4,16.8   "/>
		<polygon class="st0" points="141.9,13.2 141.9,16.9 149.7,16.9 149.7,13.2   "/>
		<polygon class="st0" points="127.7,13.1 127.7,17 136,17 136,13.1   "/>
		<polygon class="st0" points="113.5,13 113.5,17.1 122.2,17.1 122.2,13   "/>
		<polygon class="st0" points="99.3,12.9 99.3,17.2 108.5,17.1 108.5,12.9   "/>
		<polygon class="st0" points="94.8,17.2 94.8,12.9 85.1,12.8 85.1,17.3   "/>
		<polygon class="st0" points="70.9,12.7 70.9,17.4 81.1,17.3 81.1,12.8   "/>
		<polygon class="st0" points="56.8,12.6 56.8,17.5 67.4,17.4 67.4,12.7   "/>
		<polygon class="st0" points="42.6,12.5 42.6,17.6 53.6,17.5 53.6,12.6   "/>
		<polygon class="st0" points="28.4,12.4 28.4,17.7 39.9,17.6 39.9,12.5   "/>
		<polygon class="st0" points="14.2,12.3 14.2,17.8 26.2,17.7 26.2,12.4   "/>
		<polygon class="st0" points="12.5,17.8 12.5,12.3 0,12.2 0,17.9   "/>
		<polygon class="st0" points="238.8,10.1 238.8,7.8 234.1,7.8 234.1,10.1   "/>
		<polygon class="st0" points="211.4,10.3 211.4,7.6 205.7,7.6 205.7,10.4   "/>
		<polygon class="st0" points="184,10.5 184,7.4 177.4,7.4 177.4,10.6   "/>
		<polygon class="st0" points="149,10.8 156.5,10.7 156.5,7.2 149,7.1   "/>
		<polygon class="st0" points="120.6,11 142.8,10.8 142.8,7.1 120.6,6.9   "/>
		<path class="st0" d="M92.2,6.8v4.4c8.5,0,3.5,0,23.2-0.2V6.9C95.1,6.8,103.7,6.8,92.2,6.8z"/>
		<polygon class="st0" points="87.9,11.2 87.9,6.7 63.8,6.5 63.8,11.4   "/>
		<polygon class="st0" points="60.5,11.4 60.5,6.5 0,6.1 0,11.8   "/>
		<polygon class="st0" points="299.8,3.6 300.6,3.6 300.6,2.2 299.8,2.2 298.8,2.2 298,2.2 298,3.6 298.8,3.6   "/>
		<polygon class="st0" points="286.9,3.7 286.9,2.1 283.8,2.1 283.8,3.7   "/>
		<polygon class="st0" points="273.1,3.8 273.1,2 269.6,1.9 269.6,3.8   "/>
		<polygon class="st0" points="259.4,3.9 259.4,1.9 255.4,1.8 255.4,3.9   "/>
		<polygon class="st0" points="245.7,4 245.7,1.8 241.2,1.7 241.2,4   "/>
		<polygon class="st0" points="232,4.1 232,1.7 227,1.6 227,4.1   "/>
		<polygon class="st0" points="218.3,4.2 218.3,1.6 212.8,1.5 212.8,4.2   "/>
		<polygon class="st0" points="204.6,4.3 204.6,1.5 200.3,1.4 198.6,1.4 198.6,4.3   "/>
		<polygon class="st0" points="190.8,4.4 190.8,1.4 184.5,1.3 184.5,4.4   "/>
		<polygon class="st0" points="177.1,4.5 177.1,1.3 170.3,1.2 170.3,4.5   "/>
		<polygon class="st0" points="163.4,4.6 163.4,1.2 156.1,1.1 156.1,4.6   "/>
		<polygon class="st0" points="149.7,4.7 149.7,1.1 141.9,1 141.9,4.7   "/>
		<polygon class="st0" points="136,4.8 136,1 127.7,0.9 127.7,4.8   "/>
		<polygon class="st0" points="122.2,4.9 122.2,0.9 113.5,0.8 113.5,4.9   "/>
		<polygon class="st0" points="108.5,5 108.5,0.8 99.3,0.7 99.3,5   "/>
		<polygon class="st0" points="94.8,5.1 94.8,0.7 85.1,0.6 85.1,5.1   "/>
		<polygon class="st0" points="81.1,5.2 81.1,0.6 70.9,0.5 70.9,5.2   "/>
		<polygon class="st0" points="67.4,5.3 67.4,0.5 56.8,0.4 56.8,5.3   "/>
		<polygon class="st0" points="53.6,5.4 53.6,0.4 42.6,0.3 42.6,5.4   "/>
		<polygon class="st0" points="39.9,5.5 39.9,0.3 28.4,0.2 28.4,5.5   "/>
		<polygon class="st0" points="26.2,5.6 26.2,0.2 0,0 0,5.7   "/>
	</g>
</g>
</svg>