<?xml version="1.0" standalone="no"?>
<!DOCTYPE svg PUBLIC "-//W3C//DTD SVG 1.1//EN" "http://www.w3.org/Graphics/SVG/1.1/DTD/svg11.dtd">
<svg xmlns="http://www.w3.org/2000/svg" xmlns:xlink="http://www.w3.org/1999/xlink" version="1.1" id="Layer_1" x="0px" y="0px" viewBox="0 0 483 517.9" style="enable-background:new 0 0 483 517.9;" xml:space="preserve" width="483" height="517.9000244140625">
<style type="text/css">
	.st0{fill:#ffffff;}
</style>
<g>
	<rect x="443.5" y="236" class="st0" width="7.8" height="1.6"/>
	<rect x="443.5" y="250.8" class="st0" width="7.8" height="1.6"/>
	<rect x="443.5" y="221.2" class="st0" width="7.8" height="1.6"/>
	<rect x="443.5" y="206.4" class="st0" width="7.8" height="1.6"/>
	<rect x="443.5" y="265.6" class="st0" width="7.8" height="1.6"/>
	<rect x="443.5" y="309.9" class="st0" width="7.8" height="1.6"/>
	<rect x="443.5" y="339.5" class="st0" width="7.8" height="1.6"/>
	<rect x="443.5" y="324.7" class="st0" width="7.8" height="1.6"/>
	<rect x="443.5" y="295.1" class="st0" width="7.8" height="1.6"/>
	<rect x="443.5" y="354.3" class="st0" width="7.8" height="1.6"/>
	<rect x="443.5" y="191.6" class="st0" width="7.8" height="1.6"/>
	<rect x="443.5" y="280.3" class="st0" width="7.8" height="1.6"/>
	<polygon class="st0" points="419.6,189.6 427.6,189.6 427.6,189.4 435.6,189.4 435.6,187.3 427.6,187.3 427.6,187.2 419.6,187.2     "/>
	<polygon class="st0" points="395.9,185.4 403.9,185.4 403.9,185.3 411.8,185.3 411.8,182.3 403.9,182.3 403.9,182.2 395.9,182.2     "/>
	<rect x="411.8" y="176.7" class="st0" width="7.8" height="2.7"/>
	<rect x="387.9" y="205.5" class="st0" width="8" height="3.5"/>
	<rect x="387.9" y="188.2" class="st0" width="8" height="3.5"/>
	<rect x="435.4" y="181.9" class="st0" width="8" height="1.8"/>
	<rect x="443.5" y="176.8" class="st0" width="7.8" height="1.6"/>
	<rect x="435.4" y="166.7" class="st0" width="8" height="1.8"/>
	<rect x="443.5" y="162" class="st0" width="7.8" height="1.6"/>
	<rect x="435.4" y="151.5" class="st0" width="8" height="1.8"/>
	<rect x="435.4" y="136.2" class="st0" width="8" height="1.8"/>
	<polygon class="st0" points="395.9,202.1 403.9,202.1 403.9,202 411.8,202 411.8,199 403.9,199 403.9,198.9 395.9,198.9  "/>
	<rect x="435.4" y="364.7" class="st0" width="8" height="1.8"/>
	<polygon class="st0" points="348.4,227.7 340.5,227.7 340.5,232.8 348.5,232.8 348.5,232.7 356.4,232.7 356.4,227.7 348.5,227.7     "/>
	<polygon class="st0" points="261.3,266.3 261.3,274.2 269.3,274.2 269.3,274.1 277.3,274.1 277.3,274 285.1,274 285.1,266.4    277.3,266.4 277.1,266.4 269.3,266.4 269.3,266.3  "/>
	<rect x="387.9" y="222.7" class="st0" width="8" height="3.5"/>
	<polygon class="st0" points="340.5,252 348.5,252 348.5,251.9 356.4,251.9 356.4,246.9 348.5,246.9 348.4,246.9 340.5,246.9  "/>
	<rect x="411.8" y="209.1" class="st0" width="7.8" height="2.7"/>
	<rect x="411.8" y="192.9" class="st0" width="7.8" height="2.7"/>
	<rect x="435.4" y="197.2" class="st0" width="8" height="1.8"/>
	<polygon class="st0" points="395.9,235.5 403.9,235.5 403.9,235.4 411.8,235.4 411.8,232.4 403.9,232.4 403.9,232.3 395.9,232.3     "/>
	<polygon class="st0" points="293.2,284 301,284 301,283.9 309,283.9 309,277.2 301,277.2 301,277.1 293.2,277.1 293.2,277    285.1,277 285.1,284.1 293.2,284.1  "/>
	<rect x="411.8" y="225.2" class="st0" width="7.8" height="2.7"/>
	<rect x="387.9" y="240" class="st0" width="8" height="3.5"/>
	<polygon class="st0" points="403.9,335.6 411.8,335.6 411.8,332.6 403.9,332.6 403.9,332.5 395.9,332.5 395.9,335.7 403.9,335.7     "/>
	<rect x="387.9" y="326.3" class="st0" width="8" height="3.5"/>
	<rect x="411.8" y="338.5" class="st0" width="7.8" height="2.7"/>
	<rect x="411.8" y="354.7" class="st0" width="7.8" height="2.7"/>
	<polygon class="st0" points="427.6,362.1 435.6,362.1 435.6,360 427.6,360 427.6,359.8 419.6,359.8 419.6,362.2 427.6,362.2  "/>
	<polygon class="st0" points="348.5,309.4 356.4,309.4 356.4,304.4 348.5,304.4 348.4,304.4 340.5,304.4 340.5,309.5 348.5,309.5     "/>
	<polygon class="st0" points="332.7,301.6 340.5,301.6 340.5,296.1 332.7,296.1 332.7,296 324.7,296 324.7,301.7 332.7,301.7  "/>
	<polygon class="st0" points="380.2,323.4 388.1,323.4 388.1,319.5 380.2,319.5 380.2,319.4 372.2,319.4 372.2,323.5 380.2,323.5     "/>
	<polygon class="st0" points="316.8,293.1 324.7,293.1 324.7,287 316.8,287 316.8,286.9 308.8,286.9 308.8,293.2 316.8,293.2  "/>
	<polygon class="st0" points="364.4,316.7 372.2,316.7 372.2,312.3 364.4,312.3 364.4,312.2 356.4,312.2 356.4,316.8 364.4,316.8     "/>
	<rect x="451.3" y="272.7" class="st0" width="8" height="1.3"/>
	<rect x="451.3" y="243.9" class="st0" width="8" height="1.3"/>
	<rect x="451.3" y="359" class="st0" width="8" height="1.3"/>
	<rect x="451.3" y="229.5" class="st0" width="8" height="1.3"/>
	<rect x="451.3" y="215.2" class="st0" width="8" height="1.3"/>
	<rect x="451.3" y="200.8" class="st0" width="8" height="1.3"/>
	<rect x="435.4" y="212.4" class="st0" width="8" height="1.8"/>
	<rect x="451.3" y="344.6" class="st0" width="8" height="1.3"/>
	<rect x="451.3" y="287.1" class="st0" width="8" height="1.3"/>
	<rect x="451.3" y="330.2" class="st0" width="8" height="1.3"/>
	<rect x="451.3" y="315.8" class="st0" width="8" height="1.3"/>
	<rect x="451.3" y="301.5" class="st0" width="8" height="1.3"/>
	<rect x="451.3" y="258.3" class="st0" width="8" height="1.3"/>
	<rect x="435.4" y="105.8" class="st0" width="8" height="1.8"/>
	<rect x="435.4" y="121" class="st0" width="8" height="1.8"/>
	<polygon class="st0" points="419.6,142.5 427.6,142.5 427.6,142.3 435.6,142.3 435.6,140.2 427.6,140.2 427.6,140.1 419.6,140.1     "/>
	<rect x="451.3" y="128.8" class="st0" width="8" height="1.3"/>
	<polygon class="st0" points="419.6,158.2 427.6,158.2 427.6,158 435.6,158 435.6,155.9 427.6,155.9 427.6,155.8 419.6,155.8  "/>
	<rect x="451.3" y="172" class="st0" width="8" height="1.3"/>
	<rect x="451.3" y="157.6" class="st0" width="8" height="1.3"/>
	<rect x="443.5" y="117.6" class="st0" width="7.8" height="1.6"/>
	<rect x="451.3" y="186.4" class="st0" width="8" height="1.3"/>
	<rect x="443.5" y="102.8" class="st0" width="7.8" height="1.6"/>
	<rect x="451.3" y="114.5" class="st0" width="8" height="1.3"/>
	<polygon class="st0" points="380.2,341.3 388.1,341.3 388.1,337.4 380.2,337.4 380.2,337.3 372.2,337.3 372.2,341.4 380.2,341.4     "/>
	<polygon class="st0" points="316.8,313.8 324.7,313.8 324.7,307.7 316.8,307.7 316.8,307.6 308.8,307.6 308.8,313.9 316.8,313.9     "/>
	<polygon class="st0" points="293.2,305.6 301,305.6 301,305.5 309,305.5 309,298.8 301,298.8 301,298.7 293.2,298.7 293.2,298.6    285.1,298.6 285.1,305.7 293.2,305.7  "/>
	<polygon class="st0" points="372.2,234.2 380.2,234.2 380.2,234.1 388.1,234.1 388.1,230.2 380.2,230.2 380.2,230.1 372.2,230.1     "/>
	<polygon class="st0" points="364.4,335.2 372.2,335.2 372.2,330.8 364.4,330.8 364.4,330.6 356.4,330.6 356.4,335.2 364.2,335.2     "/>
	<polygon class="st0" points="348.5,328.6 356.4,328.6 356.4,323.6 348.5,323.6 348.4,323.6 340.5,323.6 340.5,328.7 348.5,328.7     "/>
	<polygon class="st0" points="332.7,321.5 340.5,321.5 340.5,316 332.7,316 332.7,315.9 324.7,315.9 324.7,321.6 332.7,321.6  "/>
	<polygon class="st0" points="348.4,208.5 340.5,208.5 340.5,213.6 348.5,213.6 348.5,213.5 356.4,213.5 356.4,208.5 348.5,208.5     "/>
	<polygon class="st0" points="269.3,296.6 277.3,296.6 277.3,296.5 285.1,296.5 285.1,288.9 277.3,288.9 277.1,288.9 269.3,288.9    269.3,288.8 261.3,288.8 261.3,296.7 269.3,296.7  "/>
	<polygon class="st0" points="324.7,216.3 324.7,222 332.7,222 332.7,221.9 340.5,221.9 340.5,216.4 332.7,216.4 332.7,216.3  "/>
	<polygon class="st0" points="237.6,254.6 237.6,263.3 245.6,263.3 245.6,263.2 253.4,263.2 253.6,263.2 261.5,263.2 261.5,254.8    253.6,254.8 253.6,254.7 245.6,254.7 245.6,254.6  "/>
	<rect x="451.3" y="373.4" class="st0" width="8" height="1.3"/>
	<polygon class="st0" points="245.6,286.8 253.6,286.8 253.6,286.7 261.5,286.7 261.5,278.3 253.6,278.3 253.4,278.3 245.6,278.3    245.6,278.2 237.6,278.2 237.6,286.9 245.6,286.9  "/>
	<rect x="387.9" y="343.5" class="st0" width="8" height="3.5"/>
	<rect x="435.4" y="395.2" class="st0" width="8" height="1.8"/>
	<rect x="435.4" y="379.9" class="st0" width="8" height="1.8"/>
	<rect x="451.3" y="387.8" class="st0" width="8" height="1.3"/>
	<rect x="451.3" y="402.2" class="st0" width="8" height="1.3"/>
	<rect x="443.5" y="398.7" class="st0" width="7.8" height="1.6"/>
	<polygon class="st0" points="395.9,369.1 403.7,369.1 403.9,369.1 411.8,369.1 411.8,366.1 403.9,366.1 403.9,365.9 395.9,365.9     "/>
	<polygon class="st0" points="403.9,352.3 411.8,352.3 411.8,349.3 403.9,349.3 403.9,349.2 395.9,349.2 395.9,352.4 403.9,352.4     "/>
	<rect x="411.8" y="144.3" class="st0" width="7.8" height="2.7"/>
	<polygon class="st0" points="427.6,377.7 435.6,377.7 435.6,375.6 427.6,375.6 427.6,375.4 419.6,375.4 419.6,377.8 427.6,377.8     "/>
	<rect x="411.8" y="370.9" class="st0" width="7.8" height="2.7"/>
	<polygon class="st0" points="261.3,221.2 261.3,229.1 269.3,229.1 277.3,229.1 277.3,229 285.1,229 285.1,221.4 277.3,221.4    277.1,221.4 269.3,221.4 269.3,221.2  "/>
	<polygon class="st0" points="285.1,233.8 285.1,240.9 293,240.9 293.2,240.9 301,240.9 301,240.8 309,240.8 309,234.1 301,234.1    301,234 293.2,234 293.2,233.8  "/>
	<polygon class="st0" points="356.4,219.7 356.4,224.3 364.4,224.3 364.4,224.2 372.2,224.2 372.2,219.8 364.4,219.8 364.4,219.7     "/>
	<polygon class="st0" points="324.7,196.4 324.7,202.1 332.7,202.1 332.7,202 340.5,202 340.5,196.5 332.7,196.5 332.7,196.4  "/>
	<polygon class="st0" points="308.8,224.8 308.8,231.1 316.8,231.1 316.8,231 324.7,231 324.7,224.9 316.8,224.9 316.8,224.8  "/>
	<polygon class="st0" points="237.6,231.1 237.6,239.8 245.6,239.8 245.6,239.7 253.6,239.7 253.6,239.6 261.5,239.6 261.5,231.2    253.6,231.2 253.6,231.2 245.6,231.2 245.6,231.1  "/>
	<polygon class="st0" points="395.9,148.8 395.9,152 403.9,152 403.9,151.9 411.8,151.9 411.8,148.9 403.9,148.9 403.9,148.8  "/>
	<polygon class="st0" points="221.9,276 229.8,276 229.8,275.9 237.8,275.9 237.8,266.6 229.8,266.6 221.9,266.6 221.9,266.5    213.9,266.5 213.9,276.1 221.9,276.1  "/>
	<polygon class="st0" points="356.4,182.7 356.4,187.3 364.4,187.3 364.4,187.2 372.2,187.2 372.2,182.8 364.4,182.8 364.4,182.7     "/>
	<polygon class="st0" points="190.2,253.7 190,253.7 182.2,253.7 182.2,264.3 190.2,264.3 190.2,264.2 198,264.2 198,264.1    205.9,264.1 206.1,264.1 213.9,264.1 213.9,253.9 206.1,253.9 206.1,253.8 198,253.8 198,253.7  "/>
	<polygon class="st0" points="419.6,124.4 419.6,126.8 427.6,126.8 427.6,126.7 435.6,126.7 435.6,124.6 427.6,124.6 427.6,124.4     "/>
	<rect x="443.5" y="147.2" class="st0" width="7.8" height="1.6"/>
	<polygon class="st0" points="285.1,255.4 285.1,262.5 293.2,262.5 293.2,262.4 301,262.4 301,262.3 301,262.3 309,262.3 309,255.6    301,255.6 301,255.5 293.2,255.5 293.2,255.4  "/>
	<polygon class="st0" points="261.3,243.8 261.3,251.7 269.3,251.7 269.3,251.6 277.3,251.6 277.3,251.5 285.1,251.5 285.1,243.9    277.3,243.9 277.1,243.9 269.3,243.9 269.3,243.8  "/>
	<rect x="443.5" y="383.9" class="st0" width="7.8" height="1.6"/>
	<polygon class="st0" points="308.8,245.5 308.8,251.8 316.8,251.8 316.8,251.7 324.7,251.7 324.7,245.6 316.8,245.6 316.8,245.5     "/>
	<polygon class="st0" points="372.2,212.3 372.2,216.4 380.2,216.4 380.2,216.3 388.1,216.3 388.1,212.4 380.2,212.4 380.2,212.3     "/>
	<polygon class="st0" points="324.7,236.2 324.7,241.9 332.7,241.9 332.7,241.8 340.5,241.8 340.5,236.3 332.7,236.3 332.7,236.2     "/>
	<polygon class="st0" points="419.6,171.5 419.6,173.9 427.6,173.9 427.6,173.7 435.6,173.7 435.6,171.6 427.6,171.6 427.6,171.5     "/>
	<polygon class="st0" points="395.9,165.5 395.9,168.7 403.9,168.7 403.9,168.6 411.8,168.6 411.8,165.6 403.9,165.6 403.9,165.5     "/>
	<rect x="443.5" y="369.1" class="st0" width="7.8" height="1.6"/>
	<rect x="443.5" y="132.4" class="st0" width="7.8" height="1.6"/>
	<polygon class="st0" points="324.7,176.5 324.7,182.2 332.7,182.2 332.7,182.1 340.5,182.1 340.5,176.6 332.7,176.6 332.7,176.5     "/>
	<polygon class="st0" points="261.3,198.7 261.3,206.6 269.3,206.6 277.3,206.6 277.3,206.5 285.1,206.5 285.1,198.9 277.3,198.9    277.1,198.9 269.3,198.9 269.3,198.7  "/>
	<polygon class="st0" points="221.9,202 229.8,202 229.8,201.9 237.8,201.9 237.8,192.7 245.6,192.7 245.6,192.6 253.6,192.6    253.6,192.5 261.5,192.5 261.5,184.1 269.3,184.1 269.3,184 277.3,184 277.3,183.9 285.1,183.9 285.1,176.3 277.3,176.3    277.1,176.3 269.3,176.3 269.3,176.2 261.3,176.2 261.3,184.1 253.6,184.1 253.4,184.1 245.6,184.1 245.6,184 237.6,184    237.6,192.6 229.8,192.6 221.9,192.6 221.9,192.5 213.9,192.5 213.9,202.1 221.9,202.1  "/>
	<polygon class="st0" points="118.8,223.8 118.8,236.6 126.8,236.6 134.8,236.6 134.8,236.5 142.7,236.5 142.7,236.4 150.7,236.4    150.7,224 158.5,224 158.5,223.9 166.5,223.9 166.5,223.8 174.4,223.8 174.4,223.7 182.4,223.7 182.4,212.5 190.2,212.5    190.2,212.4 198,212.4 198,212.3 205.9,212.3 206.1,212.3 213.9,212.3 213.9,202.1 206.1,202.1 206.1,202 198,202 198,201.9    190.2,201.9 190,201.9 182.2,201.9 182.2,212.4 174.4,212.4 166.5,212.4 166.5,212.3 158.5,212.3 150.5,212.3 150.5,223.9    142.7,223.9 134.8,223.9 134.6,223.9 126.8,223.9 126.8,223.8  "/>
	<polygon class="st0" points="95.1,236.7 87.3,236.7 79.3,236.7 79.3,250.9 87.3,250.9 87.3,250.8 95.1,250.8 95.1,250.7    103.1,250.7 111.1,250.7 111.1,250.6 119,250.6 119,236.9 111.1,236.9 111.1,236.8 103.1,236.8 103.1,236.7  "/>
	<polygon class="st0" points="324.7,156.6 324.7,162.3 332.7,162.3 332.7,162.2 340.5,162.2 340.5,156.7 332.7,156.7 332.7,156.6     "/>
	<polygon class="st0" points="308.8,162.6 308.8,168.9 316.8,168.9 316.8,168.8 324.7,168.8 324.7,162.7 316.8,162.7 316.8,162.6     "/>
	<polygon class="st0" points="285.1,169.1 285.1,176.2 293.2,176.2 293.2,176.1 301,176.1 301,176 309,176 309,169.3 301,169.3    301,169.2 293.2,169.2 293.2,169.1  "/>
	<path class="st0" d="M475.2,503.9h-8v-0.5h-7.8v-0.5h-8v-0.6h-7.8v-0.5h-7.8v-0.6h-8V501h-8v-0.7h-7.8v-0.6h-7.8v-0.1h-8v-0.7h-7.8   v-0.8h-7.8V498h-8v-0.8h-7.8v-0.1h-8v-0.9h-7.8h-0.2h-7.8v-0.9h-7.8v-0.2h-8v-0.9h-7.8V494H309v-1h-8v-0.1h-7.8v-0.2h-8v-1.1h-7.8   v-0.1h-8v-0.2h-7.8v-1.1h-7.8v-0.1h-8v-0.2h-7.8v-1.3h-8v-0.1h-7.8v-0.2h-8V487h-7.8v-0.1h-8v-0.2h-7.8v-0.1h-7.8v-1.5h-8v-0.2   h-7.8v-0.1h-8v-0.1h-7.8V483h-8v-0.1h-7.8v-0.2h-8v-0.1H119v-1.8h-7.8v-0.3h-8v-0.1h-8v-0.1h-7.8v-0.1h-7.8v-2.1h-8V478h-8v-0.1   h-7.8v-0.2h-7.8v-0.2h-7.8v-0.1h-8v-2.3h-7.8v-0.2h-8v-0.1H8.2v-0.1h-8V492H8h0.2H16h7.8v0.1h8v1.1h7.8h0.2h7.6v0.1h8h7.8h8h7.8   v1.1h8h7.8h8h7.8v0.1h7.8v0.9h8h7.8v0.1h8h7.8v0.9h8h7.8h0.2h7.8h7.8v0.8h7.8h0.2h7.8h7.8h0.2h7.8v0.7h7.8h0.2h7.8h7.8v0.7h8h7.8   h0.2h7.6v0.6h8h7.8h0.2h7.8v0.6h7.8h0.2h7.8v-0.1h7.8v0.6c0,0,7.5,0,7.8,0h0.2h7.8v0.5c0,0,7.5,0,7.8,0h0.2h7.8v0.5h8v-0.1h7.8v0.5   h8v-0.1h7.8v0.5h8V502h7.6v0.4h8v0.4h8v-0.1c0.4,0,7.8,0,7.8,0v0.3h7.8v0.4h8v-0.1h7.8v0.3h8v0.3h7.8v0.2v0.1h7.8v0.2h8v0.2h7.8   v0.2h8v-0.4h-7.8V503.9z"/>
	<polygon class="st0" points="475.2,517.5 467.1,517.5 467.1,517.4 459.3,517.4 459.3,517.3 451.3,517.3 451.3,517.1 443.5,517.1    443.5,517 435.4,517 435.4,516.8 427.6,516.8 427.6,516.7 419.6,516.7 419.6,516.6 411.8,516.6 411.8,516.4 403.9,516.4    403.9,516.3 395.9,516.3 395.9,516.1 388.1,516.1 388.1,516 380.1,516 380.1,515.9 372.2,515.9 372.2,515.7 364.2,515.7    364.2,515.6 356.4,515.6 356.4,515.4 348.4,515.4 348.4,515.3 340.5,515.3 340.5,515.1 332.7,515.1 332.7,515 324.7,515    324.7,514.9 316.8,514.9 316.8,514.7 308.8,514.7 308.8,514.6 301,514.6 301,514.4 293,514.4 293,514.3 285.1,514.3 285.1,514.2    277.1,514.2 277.1,514 269.3,514 269.3,513.9 261.5,513.9 261.5,513.7 253.4,513.7 253.4,513.6 245.6,513.6 245.6,513.5    237.6,513.5 237.6,513.3 229.8,513.3 229.8,513.2 221.7,513.2 221.7,513 213.9,513 213.9,512.9 205.9,512.9 205.9,512.8 198,512.8    198,512.6 190.2,512.6 190.2,512.5 182.2,512.5 182.2,512.3 174.4,512.3 174.4,512.2 166.3,512.2 166.3,512.1 158.5,512.1    158.5,511.9 150.5,511.9 150.5,511.8 142.7,511.8 142.7,511.6 134.6,511.6 134.6,511.5 126.8,511.5 126.8,511.3 119,511.3    119,511.2 111,511.2 111,511.1 103.1,511.1 103.1,510.9 95.1,510.9 95.1,510.8 87.3,510.8 87.3,510.6 79.3,510.6 79.3,510.5    71.4,510.5 71.4,510.4 63.4,510.4 63.4,510.2 55.6,510.2 55.6,510.1 47.7,510.1 47.7,509.9 39.7,509.9 39.7,509.8 31.9,509.8    31.9,509.7 23.9,509.7 23.9,509.5 16,509.5 16,509.4 8,509.4 8,509.2 0,509.2 0,517.9 8,517.9 15.9,517.9 16,517.9 23.9,517.9    31.7,517.9 31.9,517.9 39.7,517.9 47.6,517.9 47.7,517.9 55.4,517.9 55.6,517.9 63.4,517.9 71.2,517.9 71.4,517.9 79.3,517.9    87.1,517.9 87.3,517.9 95.1,517.9 102.9,517.9 103.1,517.9 111,517.9 118.8,517.9 119,517.9 126.6,517.9 126.8,517.9 134.6,517.9    142.5,517.9 142.7,517.9 150.5,517.9 158.3,517.9 158.5,517.9 166.3,517.9 174.2,517.9 174.4,517.9 182.2,517.9 190,517.9    190.2,517.9 197.9,517.9 198,517.9 205.9,517.9 213.7,517.9 213.9,517.9 221.7,517.9 229.6,517.9 229.8,517.9 237.6,517.9    245.4,517.9 245.6,517.9 253.4,517.9 261.3,517.9 261.5,517.9 269.1,517.9 269.3,517.9 277.1,517.9 285,517.9 285.1,517.9    293,517.9 300.8,517.9 301,517.9 308.8,517.9 316.7,517.9 316.8,517.9 324.7,517.9 332.5,517.9 332.7,517.9 340.3,517.9    340.5,517.9 348.4,517.9 356.2,517.9 356.4,517.9 364.2,517.9 372,517.9 372.2,517.9 380.1,517.9 387.9,517.9 388.1,517.9    395.9,517.9 403.7,517.9 403.9,517.9 411.6,517.9 411.8,517.9 419.6,517.9 427.4,517.9 427.6,517.9 435.4,517.9 443.3,517.9    443.5,517.9 451.3,517.9 459.1,517.9 459.3,517.9 467.1,517.9 475,517.9 475.2,517.9 483,517.9 483,517.7 475.2,517.9  "/>
	<polygon class="st0" points="55.6,266.8 55.6,266.7 63.4,266.7 63.4,266.6 71.4,266.6 79.4,266.6 79.4,251.4 71.4,251.4    71.4,251.3 63.4,251.3 55.6,251.3 55.6,251.2 47.7,251.2 47.7,251.1 39.9,251.1 39.7,251.1 31.9,251.1 31.9,266.9 39.9,266.9    39.9,266.8 47.6,266.8 47.6,266.8  "/>
	<polygon class="st0" points="39.7,57 39.7,57 31.9,57 31.9,60.4 24.1,60.4 23.9,60.4 16,60.4 8,60.4 8,60.5 0.2,60.5 0.2,77.8    8.2,77.8 8.2,77.6 16,77.6 16,77.5 24.1,77.5 24.1,77.4 31.9,77.4 31.9,72.8 39.9,72.8 39.9,72.7 47.7,72.7 47.7,72.6 55.6,72.6    55.6,72.5 63.4,72.5 63.4,72.4 71.4,72.4 71.4,72.2 79.4,72.2 79.4,68.2 87.3,68.2 87.3,68.1 95.1,68.1 95.1,68 103.1,68    103.1,67.8 111.1,67.8 111.1,67.7 119,67.7 119,64.1 126.8,64.1 126.8,64 134.8,64 134.8,63.9 142.7,63.9 142.7,63.7 150.7,63.7    150.7,60.5 158.5,60.5 158.5,60.4 166.5,60.4 166.5,60.3 174.4,60.3 174.4,60.1 182.4,60.1 182.4,57.2 190.2,57.2 190.2,57.1    198,57.1 198,57 206.1,57 206.1,56.9 213.9,56.9 213.9,54.2 221.9,54.2 221.9,54.1 229.8,54.1 229.8,54 237.8,54 237.8,51.6    245.6,51.6 245.6,51.4 253.6,51.4 253.6,51.3 261.5,51.3 261.5,49.1 269.3,49.1 269.3,49 277.3,49 277.3,48.8 285.1,48.8    285.1,46.8 293.2,46.8 293.2,46.7 301,46.7 301,46.5 309,46.5 309,44.6 316.8,44.6 316.8,44.5 324.7,44.5 324.7,42.8 332.7,42.8    332.7,42.6 340.5,42.6 340.5,41 348.5,41 348.5,40.9 356.4,40.9 356.4,39.4 364.4,39.4 364.4,39.2 372.2,39.2 372.2,37.8    380.2,37.8 380.2,37.7 388.1,37.7 388.1,36.3 395.9,36.3 395.9,35.1 403.9,35.1 403.9,34.9 411.8,34.9 411.8,33.8 419.6,33.8    419.6,32.6 427.6,32.6 427.6,32.5 435.6,32.5 435.6,31.4 443.5,31.4 443.5,30.4 451.3,30.4 451.3,29.5 459.3,29.5 459.3,28.5    467.1,28.5 467.1,27.7 475.2,27.7 475.2,27 467.1,27 467.1,27.5 459.1,27.5 459.1,28.2 451.3,28.2 451.3,28.8 443.5,28.8    443.5,29.6 435.4,29.6 435.4,30.4 427.6,30.4 427.6,30.2 419.6,30.2 419.6,31.1 411.8,31.1 411.8,31.9 403.9,31.9 403.7,31.9    395.9,31.9 395.9,32.8 387.9,32.8 387.9,33.8 380.2,33.8 380.2,33.7 372.2,33.7 372.2,34.8 364.4,34.8 364.2,34.8 356.4,34.8    356.4,35.9 348.5,35.9 348.4,35.9 340.5,35.9 340.5,37.1 332.7,37.1 332.5,37.1 324.7,37.1 324.7,38.4 316.8,38.4 316.8,38.3    308.8,38.3 308.8,39.8 301,39.8 293.2,39.8 293.2,39.7 285.1,39.7 285.1,41.2 277.1,41.2 277.1,41.3 269.3,41.3 269.3,41.2    261.3,41.2 261.3,42.9 253.6,42.9 253.4,42.9 245.6,42.9 237.6,42.9 237.6,44.7 229.8,44.7 221.9,44.7 221.9,44.6 213.9,44.6    213.9,46.7 205.9,46.7 205.9,46.7 198,46.7 198,46.6 190.2,46.6 190,46.6 182.2,46.6 182.2,48.8 174.4,48.8 174.4,48.9 166.5,48.9    166.5,48.8 158.5,48.8 150.5,48.8 150.5,51.2 142.7,51.2 142.7,51.3 134.8,51.3 134.6,51.3 126.8,51.3 118.8,51.3 118.8,54    111.1,54 111.1,53.9 103.1,53.9 103.1,54 95.1,54 87.3,54 87.3,54 79.3,54 79.3,57 71.4,57 71.4,57.1 63.4,57.1 55.6,57.1 55.6,57    47.7,57 47.7,57  "/>
	<polygon class="st0" points="269.3,341.7 269.3,341.6 277.1,341.6 277.3,341.6 285.1,341.6 285.1,334 277.3,334 277.3,333.9    269.3,333.9 269.3,333.8 261.5,333.8 261.5,325.4 253.6,325.4 253.4,325.4 245.6,325.4 245.6,325.2 237.8,325.2 237.8,316    229.8,316 229.8,315.9 221.9,315.9 221.9,315.8 213.9,315.8 213.9,305.7 206.1,305.7 206.1,305.6 198,305.6 198,305.5 190.2,305.5    190.2,305.4 182.4,305.4 182.4,294.2 174.4,294.2 166.5,294.2 166.5,294 158.5,294 158.5,294 150.7,294 150.7,281.5 142.7,281.5    142.7,281.4 134.8,281.4 134.6,281.4 126.8,281.4 126.8,281.3 118.8,281.3 118.8,294.1 126.8,294.1 134.8,294.1 134.8,294    142.7,294 150.5,294 150.5,305.7 158.5,305.7 158.5,305.6 166.3,305.6 166.5,305.6 174.4,305.6 174.4,305.5 182.2,305.5 182.2,316    190,316 190.2,316 198,316 198,315.9 205.9,315.9 206.1,315.9 213.9,315.9 213.9,325.4 221.9,325.4 221.9,325.3 229.8,325.3    237.6,325.3 237.6,333.9 245.6,333.9 253.6,333.9 253.6,333.8 261.3,333.8 261.3,341.7  "/>
	<polygon class="st0" points="150.5,239.5 150.5,251.2 158.5,251.2 158.5,251.1 166.3,251.1 166.5,251.1 174.4,251.1 174.4,251    182.4,251 182.4,239.7 174.4,239.7 166.5,239.7 166.5,239.5 158.5,239.5 158.5,239.5  "/>
	<polygon class="st0" points="237.6,207.6 237.6,216.3 245.6,216.3 245.6,216.2 253.6,216.2 253.6,216.1 261.5,216.1 261.5,207.7    253.6,207.7 253.6,207.7 245.6,207.7 245.6,207.6  "/>
	<polygon class="st0" points="213.9,217.2 213.9,226.8 221.9,226.8 221.9,226.7 229.8,226.7 229.8,226.6 237.8,226.6 237.8,217.3    229.8,217.3 221.9,217.3 221.9,217.2  "/>
	<polygon class="st0" points="356.4,238.2 356.4,242.8 364.4,242.8 364.4,242.7 372.2,242.7 372.2,238.3 364.4,238.3 364.4,238.2     "/>
	<polygon class="st0" points="182.2,227.8 182.2,238.4 190,238.4 190.2,238.4 198,238.4 198,238.2 205.9,238.2 206.1,238.2    213.9,238.2 213.9,228 206.1,228 206.1,227.9 198,227.9 190.2,227.9 190.2,227.8  "/>
	<polygon class="st0" points="285.1,212.3 285.1,219.4 293.2,219.4 293.2,219.3 301,219.3 301,219.2 309,219.2 309,212.5 301,212.5    301,212.4 293.2,212.4 293.2,212.3  "/>
	<polygon class="st0" points="356.4,145.7 356.4,150.3 364.4,150.3 364.4,150.2 372.2,150.2 372.2,145.8 364.4,145.8 364.4,145.7     "/>
	<polygon class="st0" points="372.2,123 372.2,127.1 380.2,127.1 380.2,127 388.1,127 388.1,123.1 380.2,123.1 380.2,123  "/>
	<polygon class="st0" points="308.8,183.3 308.8,189.6 316.8,189.6 316.8,189.5 324.7,189.5 324.7,183.4 316.8,183.4 316.8,183.3     "/>
	<polygon class="st0" points="395.9,115.4 395.9,118.6 403.9,118.6 403.9,118.5 411.8,118.5 411.8,115.5 403.9,115.5 403.9,115.4     "/>
	<polygon class="st0" points="419.6,93 419.6,95.4 427.6,95.4 427.6,95.3 435.6,95.3 435.6,93.2 427.6,93.2 427.6,93  "/>
	<polygon class="st0" points="142.7,265.3 142.7,265.2 150.7,265.2 150.7,252.7 142.7,252.7 134.8,252.7 134.8,252.6 126.8,252.6    118.8,252.6 118.8,265.4 126.8,265.4 126.8,265.3 126.8,265.3 134.6,265.3 134.6,265.3  "/>
	<rect x="435.4" y="349.5" class="st0" width="8" height="1.8"/>
	<polygon class="st0" points="364.4,298.2 372.2,298.2 372.2,293.8 364.4,293.8 364.4,293.7 356.4,293.7 356.4,298.3 364.4,298.3     "/>
	<polygon class="st0" points="348.5,290.2 356.4,290.2 356.4,285.2 348.5,285.2 348.4,285.2 340.5,285.2 340.5,290.3 348.5,290.3     "/>
	<polygon class="st0" points="435.6,265.8 427.6,265.8 427.6,265.6 419.6,265.6 419.6,268 427.6,268 427.6,267.9 435.6,267.9  "/>
	<polygon class="st0" points="403.9,318.9 411.8,318.9 411.8,315.9 403.9,315.9 403.9,315.8 395.9,315.8 395.9,319 403.9,319  "/>
	<rect x="387.9" y="309" class="st0" width="8" height="3.5"/>
	<polygon class="st0" points="332.7,281.7 340.5,281.7 340.5,276.2 332.7,276.2 332.7,276 324.7,276 324.7,281.7 332.5,281.7  "/>
	<polygon class="st0" points="372.2,248 372.2,252.1 380.2,252.1 380.2,252 388.1,252 388.1,248.1 380.2,248.1 380.2,248  "/>
	<rect x="411.8" y="257.6" class="st0" width="7.8" height="2.7"/>
	<rect x="387.9" y="257.2" class="st0" width="8" height="3.5"/>
	<polygon class="st0" points="356.4,279.8 364.4,279.8 364.4,279.7 372.2,279.7 372.2,275.3 364.4,275.3 364.4,275.2 356.4,275.2     "/>
	<polygon class="st0" points="395.9,268.9 403.9,268.9 403.9,268.8 411.8,268.8 411.8,265.8 403.9,265.8 403.9,265.7 395.9,265.7     "/>
	<polygon class="st0" points="380.2,305.5 388.1,305.5 388.1,301.6 380.2,301.6 380.2,301.5 372.2,301.5 372.2,305.6 380.2,305.6     "/>
	<rect x="435.4" y="273.3" class="st0" width="8" height="1.8"/>
	<rect x="435.4" y="288.6" class="st0" width="8" height="1.8"/>
	<rect x="435.4" y="258.1" class="st0" width="8" height="1.8"/>
	<rect x="435.4" y="303.8" class="st0" width="8" height="1.8"/>
	<rect x="435.4" y="242.9" class="st0" width="8" height="1.8"/>
	<rect x="435.4" y="227.6" class="st0" width="8" height="1.8"/>
	<polygon class="st0" points="419.6,346.5 427.6,346.5 427.6,346.4 435.6,346.4 435.6,344.3 427.6,344.3 427.6,344.1 419.6,344.1     "/>
	<polygon class="st0" points="427.6,330.7 435.6,330.7 435.6,328.6 427.6,328.6 427.6,328.4 419.6,328.4 419.6,330.8 427.6,330.8     "/>
	<rect x="435.4" y="319" class="st0" width="8" height="1.8"/>
	<rect x="411.8" y="322.3" class="st0" width="7.8" height="2.7"/>
	<rect x="435.4" y="334.3" class="st0" width="8" height="1.8"/>
	<rect x="411.8" y="241.4" class="st0" width="7.8" height="2.7"/>
	<polygon class="st0" points="372.2,265.8 372.2,269.9 380.2,269.9 380.2,269.8 388.1,269.8 388.1,265.9 380.2,265.9 380.2,265.8     "/>
	<polygon class="st0" points="395.9,249 395.9,252.2 403.9,252.2 403.9,252.1 411.8,252.1 411.8,249.1 403.9,249.1 403.9,249  "/>
	<polygon class="st0" points="419.6,218.5 419.6,220.9 427.6,220.9 427.6,220.8 435.6,220.8 435.6,218.7 427.6,218.7 427.6,218.5     "/>
	<polygon class="st0" points="419.6,236.6 427.6,236.6 427.6,236.5 435.6,236.5 435.6,234.4 427.6,234.4 427.6,234.2 419.6,234.2     "/>
	<polygon class="st0" points="419.6,252.3 427.6,252.3 427.6,252.2 435.6,252.2 435.6,250.1 427.6,250.1 427.6,249.9 419.6,249.9     "/>
	<polygon class="st0" points="356.4,256.7 356.4,261.3 364.4,261.3 364.4,261.2 372.2,261.2 372.2,256.8 364.4,256.8 364.4,256.7     "/>
	<polygon class="st0" points="395.9,215.6 395.9,218.8 403.9,218.8 403.9,218.7 411.8,218.7 411.8,215.7 403.9,215.7 403.9,215.6     "/>
	<polygon class="st0" points="419.6,202.8 419.6,205.2 427.6,205.2 427.6,205.1 435.6,205.1 435.6,203 427.6,203 427.6,202.8  "/>
	<polygon class="st0" points="324.7,256.1 324.7,261.8 332.7,261.8 332.7,261.7 340.5,261.7 340.5,256.2 332.7,256.2 332.7,256.1     "/>
	<polygon class="st0" points="308.8,266.2 308.8,272.5 316.8,272.5 316.8,272.4 324.7,272.4 324.7,266.3 316.8,266.3 316.8,266.2     "/>
	<polygon class="st0" points="340.5,266 340.5,271.1 348.5,271.1 348.5,271 356.4,271 356.4,266 348.5,266 348.5,266  "/>
	<polygon class="st0" points="435.6,297.2 427.6,297.2 427.6,297 419.6,297 419.6,299.4 427.6,299.4 427.6,299.3 435.6,299.3  "/>
	<rect x="411.8" y="306.2" class="st0" width="7.8" height="2.7"/>
	<polygon class="st0" points="403.9,302.2 411.8,302.2 411.8,299.2 403.9,299.2 403.9,299.1 395.9,299.1 395.9,302.3 403.9,302.3     "/>
	<polygon class="st0" points="435.6,281.5 427.6,281.5 427.6,281.3 419.6,281.3 419.6,283.7 427.6,283.7 427.6,283.6 435.6,283.6     "/>
	<polygon class="st0" points="427.6,315 435.6,315 435.6,312.9 427.6,312.9 427.6,312.7 419.6,312.7 419.6,315.1 427.6,315.1  "/>
	<rect x="387.9" y="291.8" class="st0" width="8" height="3.5"/>
	<rect x="387.9" y="274.5" class="st0" width="8" height="3.5"/>
	<rect x="411.8" y="290" class="st0" width="7.8" height="2.7"/>
	<polygon class="st0" points="395.9,282.4 395.9,285.6 403.9,285.6 403.9,285.5 411.8,285.5 411.8,282.5 403.9,282.5 403.9,282.4     "/>
	<rect x="411.8" y="273.8" class="st0" width="7.8" height="2.7"/>
	<polygon class="st0" points="372.2,283.7 372.2,287.8 380.2,287.8 380.2,287.7 388.1,287.7 388.1,283.8 380.2,283.8 380.2,283.7     "/>
	<rect x="451.3" y="143.2" class="st0" width="8" height="1.3"/>
	<rect x="467.1" y="122.4" class="st0" width="8" height="0.7"/>
	<rect x="467.1" y="136" class="st0" width="8" height="0.7"/>
	<rect x="467.1" y="81.5" class="st0" width="8" height="0.7"/>
	<rect x="467.1" y="95.1" class="st0" width="8" height="0.7"/>
	<rect x="467.1" y="108.7" class="st0" width="8" height="0.7"/>
	<rect x="467.1" y="149.6" class="st0" width="8" height="0.7"/>
	<rect x="411.8" y="160.5" class="st0" width="7.8" height="2.7"/>
	<rect x="467.1" y="217.7" class="st0" width="8" height="0.7"/>
	<rect x="467.1" y="190.5" class="st0" width="8" height="0.7"/>
	<rect x="467.1" y="176.9" class="st0" width="8" height="0.7"/>
	<rect x="467.1" y="163.2" class="st0" width="8" height="0.7"/>
	<polygon class="st0" points="364.4,131.7 372.2,131.7 372.2,127.3 364.4,127.3 364.4,127.2 356.4,127.2 356.4,131.8 364.4,131.8     "/>
	<rect x="467.1" y="67.8" class="st0" width="8" height="0.7"/>
	<rect x="467.1" y="231.4" class="st0" width="8" height="0.7"/>
	<polygon class="st0" points="403.9,101.8 411.8,101.8 411.8,98.8 403.9,98.8 403.9,98.7 395.9,98.7 395.9,101.9 403.9,101.9  "/>
	<polygon class="st0" points="0.2,250.3 8,250.3 8.2,250.3 16,250.3 16,250.2 23.9,250.2 24.1,250.2 31.9,250.2 31.9,234.5    39.7,234.5 39.9,234.5 47.7,234.5 47.7,234.4 55.6,234.4 55.6,234.3 63.4,234.3 63.4,234.2 71.4,234.2 79.4,234.2 79.4,220.4    87.3,220.4 87.3,220.3 95.1,220.3 103.1,220.3 103.1,220.2 111.1,220.2 111.1,220.1 119,220.1 119,207.9 126.8,207.9 126.8,207.8    134.8,207.8 134.8,207.7 142.7,207.7 142.7,207.6 150.7,207.6 150.7,196.7 158.5,196.7 158.5,196.6 166.5,196.6 166.5,196.5    174.4,196.5 182.4,196.5 182.4,186.6 190.2,186.6 190.2,186.5 198,186.5 206.1,186.5 206.1,186.4 213.9,186.4 213.9,177.5    221.9,177.5 221.9,177.4 229.8,177.4 229.8,177.3 237.8,177.3 237.8,169.2 245.6,169.2 245.6,169.1 253.6,169.1 253.6,169    261.5,169 261.5,161.6 269.3,161.6 269.3,161.5 277.3,161.5 277.3,161.4 285.1,161.4 285.1,154.7 293.2,154.7 293.2,154.5    301,154.5 301,154.4 309,154.4 309,148.2 316.8,148.2 316.8,148.1 324.7,148.1 324.7,142.3 332.7,142.3 332.7,142.2 340.5,142.2    340.5,136.9 348.5,136.9 348.5,136.8 356.4,136.8 356.4,131.8 348.5,131.8 348.4,131.8 340.5,131.8 340.5,136.7 332.7,136.7    332.7,136.6 324.7,136.6 324.7,142 316.8,142 316.8,141.9 308.8,141.9 308.8,147.7 301,147.7 301,147.6 293.2,147.6 293,147.6    285.1,147.6 285.1,153.8 277.3,153.8 277.1,153.8 269.3,153.8 269.3,153.7 261.3,153.7 261.3,160.6 253.6,160.6 253.4,160.6    245.6,160.6 245.6,160.5 237.6,160.5 237.6,168 229.8,168 221.9,168 221.9,167.9 213.9,167.9 213.9,176.2 205.9,176.2 205.9,176.2    198,176.2 198,176 190.2,176 190,176 182.2,176 182.2,185.2 174.4,185.2 174.4,185.1 166.5,185.1 166.5,185 158.5,185 158.5,185    150.5,185 150.5,195.1 142.7,195.1 134.8,195.1 134.6,195.1 126.8,195.1 118.8,195.1 118.8,206.4 111.1,206.4 111.1,206.3    103.1,206.3 95.1,206.3 95.1,206.2 87.3,206.2 79.3,206.2 79.3,219 71.4,219 71.4,218.9 63.4,218.9 55.6,218.9 55.6,218.8    47.7,218.8 47.6,218.8 39.9,218.8 39.9,218.7 31.9,218.7 31.9,233.2 24.1,233.2 24.1,233.1 16,233.1 8.2,233.1 8.2,233 0.2,233     "/>
	<path class="st0" d="M364.4,390.7L364.4,390.7c0.4-0.1,7.8-0.1,7.8-0.1v-4.4h-7.8v-0.1h-8v4.6H364.4z"/>
	<polygon class="st0" points="0.2,215.8 8,215.8 8.2,215.8 16,215.8 16,215.7 24.1,215.7 24.1,215.6 31.9,215.6 31.9,202.2    39.9,202.2 39.9,202.1 47.7,202.1 47.7,202 55.6,202 63.4,202 63.4,201.9 71.4,201.9 71.4,201.8 79.4,201.8 79.4,190 87.3,190    87.3,189.9 95.1,189.9 95.1,189.8 103.1,189.8 111.1,189.8 111.1,189.6 119,189.6 119,179.1 126.8,179.1 126.8,179 134.6,179    134.8,179 142.7,179 142.7,178.9 150.7,178.9 150.7,169.5 158.5,169.5 158.5,169.4 166.5,169.4 166.5,169.3 174.4,169.3    174.4,169.2 182.4,169.2 182.4,160.8 190.2,160.8 190.2,160.7 198,160.7 198,160.6 206.1,160.6 206.1,160.5 213.9,160.5    213.9,152.8 221.9,152.8 221.9,152.7 229.8,152.7 229.8,152.6 237.8,152.6 237.8,145.7 245.6,145.7 245.6,145.6 253.6,145.6    253.6,145.5 261.5,145.5 261.5,139.1 269.3,139.1 269.3,139 277.3,139 277.3,138.9 285.1,138.9 285.1,133.1 293.2,133.1 293.2,133    301,133 301,132.9 309,132.9 309,127.5 316.8,127.5 316.8,127.4 324.7,127.4 324.7,122.4 332.7,122.4 332.7,122.3 340.5,122.3    340.5,117.7 348.5,117.7 348.5,117.6 356.4,117.6 356.4,113.3 364.4,113.3 364.4,113.2 372.2,113.2 372.2,109.2 380.2,109.2    380.2,109.1 388.1,109.1 388.1,105.4 395.9,105.4 395.9,101.9 387.9,101.9 387.9,105.2 380.2,105.2 380.2,105.1 372.2,105.1    372.2,108.8 364.4,108.8 364.4,108.7 356.4,108.7 356.4,112.6 348.5,112.6 348.4,112.6 340.5,112.6 340.5,116.8 332.7,116.8    332.7,116.7 324.7,116.7 324.7,121.3 316.8,121.3 316.8,121.2 308.8,121.2 308.8,126.2 301,126.2 301,126.1 293.2,126.1 293.2,126    285.1,126 285.1,131.3 277.3,131.3 277.1,131.3 269.3,131.3 269.3,131.2 261.3,131.2 261.3,137.1 253.6,137.1 253.4,137.1    245.6,137.1 245.6,137 237.6,137 237.6,143.3 229.8,143.3 221.9,143.3 221.9,143.2 213.9,143.2 213.9,150.3 206.1,150.3    205.9,150.3 198,150.3 198,150.2 190.2,150.2 190,150.2 182.2,150.2 182.2,157.9 174.4,157.9 166.5,157.9 166.5,157.8 158.5,157.8    150.5,157.8 150.5,166.4 142.7,166.4 134.8,166.4 134.8,166.3 126.8,166.3 118.8,166.3 118.8,175.9 111.1,175.9 111,175.9    103.1,175.9 103.1,175.8 95.1,175.8 87.3,175.8 79.3,175.8 79.3,186.6 71.4,186.6 63.4,186.6 55.6,186.6 55.6,186.4 47.7,186.4    47.6,186.4 39.9,186.4 39.7,186.4 31.9,186.4 31.9,198.6 24.1,198.6 23.9,198.6 16,198.6 8.2,198.6 8.2,198.5 0.2,198.5  "/>
	<rect x="467.1" y="40.6" class="st0" width="8" height="0.7"/>
	<polygon class="st0" points="0.2,112.3 8.2,112.3 8.2,112.2 16,112.2 16,112.1 24.1,112.1 24.1,112 31.9,112 31.9,105.2    39.9,105.2 39.9,105.1 47.7,105.1 47.7,105 55.6,105 55.6,104.8 63.4,104.8 63.4,104.7 71.4,104.7 71.4,104.6 79.4,104.6    79.4,98.6 87.3,98.6 87.3,98.5 95.1,98.5 95.1,98.4 103.1,98.4 103.1,98.3 111.1,98.3 111.1,98.2 119,98.2 119,92.9 126.8,92.9    126.8,92.8 134.8,92.8 134.8,92.6 142.7,92.6 142.7,92.5 150.7,92.5 150.7,87.8 158.5,87.8 158.5,87.6 166.5,87.6 166.5,87.5    174.4,87.5 174.4,87.4 182.4,87.4 182.4,83.1 190.2,83.1 190.2,83 198,83 198,82.9 206.1,82.9 206.1,82.8 213.9,82.8 213.9,78.9    221.9,78.9 221.9,78.7 229.8,78.7 229.8,78.6 237.8,78.6 237.8,75.1 245.6,75.1 245.6,75 253.6,75 253.6,74.8 261.5,74.8    261.5,71.6 269.3,71.6 269.3,71.5 277.3,71.5 277.3,71.3 285.1,71.3 285.1,68.4 293.2,68.4 293.2,68.2 301,68.2 301,68.1 309,68.1    309,65.4 316.8,65.4 316.8,65.2 324.7,65.2 324.7,62.7 332.7,62.7 332.7,62.6 340.5,62.6 340.5,60.2 348.5,60.2 348.5,60.1    356.4,60.1 356.4,57.9 364.4,57.9 364.4,57.7 372.2,57.7 372.2,55.7 380.2,55.7 380.2,55.5 388.1,55.5 388.1,53.6 395.9,53.6    395.9,51.8 403.9,51.8 403.9,51.7 411.8,51.7 411.8,49.9 419.6,49.9 419.6,48.3 427.6,48.3 427.6,48.2 435.6,48.2 435.6,46.7    443.5,46.7 443.5,45.2 451.3,45.2 451.3,43.8 459.3,43.8 459.3,42.5 467.1,42.5 467.1,41.5 459.1,41.5 459.1,42.5 451.3,42.5    451.3,43.6 443.5,43.6 443.5,44.9 435.4,44.9 435.4,46.1 427.6,46.1 427.6,45.9 419.6,45.9 419.6,47.2 411.8,47.2 411.8,48.7    403.9,48.7 403.9,48.6 395.9,48.6 395.9,50.1 387.9,50.1 387.9,51.6 380.2,51.6 380.1,51.6 372.2,51.6 372.2,53.3 364.4,53.3    364.2,53.3 356.4,53.3 356.4,55.1 348.5,55.1 348.4,55.1 340.5,55.1 340.5,57.1 332.7,57.1 332.7,57 324.7,57 324.7,59.1    316.8,59.1 316.7,59.1 308.8,59.1 308.8,61.4 301,61.4 301,61.3 293.2,61.3 293,61.3 285.1,61.3 285.1,63.7 277.1,63.7 277.1,63.8    269.3,63.8 269.3,63.7 261.3,63.7 261.3,66.4 253.4,66.4 253.4,66.5 245.6,66.5 245.6,66.4 237.6,66.4 237.6,69.3 229.8,69.3    221.9,69.3 221.7,69.3 213.9,69.3 213.9,72.6 206.1,72.6 205.9,72.6 198,72.6 198,72.5 190.2,72.5 190,72.5 182.2,72.5 182.2,76.1    174.4,76.1 166.5,76.1 166.5,76 158.5,76 158.5,76.1 150.5,76.1 150.5,80 142.7,80 134.6,80 134.6,80.1 126.8,80.1 118.8,80.1    118.8,84.5 111.1,84.5 111.1,84.4 103.1,84.4 95.1,84.4 87.3,84.4 79.3,84.4 79.3,89.4 71.4,89.4 63.4,89.4 55.6,89.4 47.7,89.4    47.6,89.4 39.9,89.4 39.7,89.4 31.9,89.4 31.9,95 24.1,95 23.9,95 16,95 16,95 8,95 8,95 0.2,95  "/>
	<rect x="435.4" y="425.6" class="st0" width="8" height="1.8"/>
	<polygon class="st0" points="0.2,181.3 8.2,181.3 8.2,181.2 16,181.2 16,181.1 23.9,181.1 24.1,181.1 31.9,181.1 31.9,169.8    39.7,169.8 39.9,169.8 47.7,169.8 47.7,169.7 55.6,169.7 55.6,169.6 63.4,169.6 63.4,169.5 71.4,169.5 71.4,169.4 79.4,169.4    79.4,159.5 87.3,159.5 87.3,159.4 95.1,159.4 95.1,159.3 103.1,159.3 103.1,159.2 111,159.2 111.1,159.2 119,159.2 119,150.4    126.8,150.4 126.8,150.3 134.8,150.3 134.8,150.2 142.7,150.2 142.7,150.1 150.7,150.1 150.7,142.2 158.5,142.2 158.5,142.1    166.5,142.1 166.5,142 174.4,142 174.4,141.9 182.4,141.9 182.4,134.9 190.2,134.9 190.2,134.8 198,134.8 198,134.7 206.1,134.7    206.1,134.6 213.9,134.6 213.9,128.2 221.9,128.2 221.9,128.1 229.8,128.1 229.8,128 237.8,128 237.8,122.1 245.6,122.1 245.6,122    253.6,122 253.6,121.9 261.5,121.9 261.5,116.6 269.3,116.6 269.3,116.5 277.3,116.5 277.3,116.4 285.1,116.4 285.1,111.5    293.2,111.5 293.2,111.4 301,111.4 301,111.3 309,111.3 309,106.8 316.8,106.8 316.8,106.7 324.7,106.7 324.7,102.5 332.7,102.5    332.7,102.4 340.5,102.4 340.5,98.5 348.5,98.5 348.5,98.4 356.4,98.4 356.4,94.8 364.4,94.8 364.4,94.7 372.2,94.7 372.2,91.4    380.2,91.4 380.2,91.2 388.1,91.2 388.1,88.1 395.9,88.1 395.9,85.2 403.9,85.2 403.9,85.1 411.8,85.1 411.8,82.3 419.6,82.3    419.6,79.7 427.6,79.7 427.6,79.6 435.6,79.6 435.6,77.5 427.6,77.5 427.6,77.3 419.6,77.3 419.6,79.6 411.8,79.6 411.8,82.1    403.9,82.1 403.9,82 395.9,82 395.9,84.6 387.9,84.6 387.9,87.3 380.2,87.3 380.1,87.3 372.2,87.3 372.2,90.3 364.4,90.3    364.4,90.2 356.4,90.2 356.4,93.4 348.5,93.4 348.4,93.4 340.5,93.4 340.5,96.9 332.7,96.9 332.7,96.8 324.7,96.8 324.7,100.6    316.8,100.6 316.8,100.5 308.8,100.5 308.8,104.6 301,104.6 301,104.5 293.2,104.5 293.2,104.4 285.1,104.4 285.1,108.8    277.3,108.8 277.1,108.8 269.3,108.8 269.3,108.7 261.3,108.7 261.3,113.5 253.6,113.5 253.4,113.5 245.6,113.5 245.6,113.4    237.6,113.4 237.6,118.7 229.8,118.7 221.9,118.7 221.9,118.6 213.9,118.6 213.9,124.4 206.1,124.4 205.9,124.4 198,124.4    198,124.3 190.2,124.3 190,124.3 182.2,124.3 182.2,130.6 174.4,130.6 166.5,130.6 166.5,130.5 158.5,130.5 158.5,130.5    150.5,130.5 150.5,137.6 142.7,137.6 134.8,137.6 134.6,137.6 126.8,137.6 118.8,137.6 118.8,145.5 111.1,145.5 111.1,145.3    103.1,145.3 95.1,145.3 87.3,145.3 79.3,145.3 79.3,154.2 71.4,154.2 71.4,154.2 63.4,154.2 55.6,154.2 55.6,154.1 47.7,154.1    47.6,154.1 39.9,154.1 39.9,154 31.9,154 31.9,164.1 24.1,164.1 24.1,164 16,164 16,164 8,164 8,164 0.2,164  "/>
	<polygon class="st0" points="0.2,146.8 8.2,146.8 8.2,146.7 16,146.7 16,146.6 24.1,146.6 24.1,146.5 31.9,146.5 31.9,137.5    39.9,137.5 39.9,137.4 47.7,137.4 47.7,137.3 55.6,137.3 55.6,137.2 63.4,137.2 63.4,137.1 71.4,137.1 71.4,137 79.4,137    79.4,129.1 87.3,129.1 87.3,129 95.1,129 95.1,128.9 103.1,128.9 103.1,128.8 111.1,128.8 111.1,128.6 119,128.6 119,121.6    126.8,121.6 126.8,121.5 134.8,121.5 134.8,121.4 142.7,121.4 142.7,121.3 150.7,121.3 150.7,115 158.5,115 158.5,114.9    166.5,114.9 166.5,114.8 174.4,114.8 174.4,114.7 182.4,114.7 182.4,109 190.2,109 190.2,108.9 198,108.9 198,108.8 206.1,108.8    206.1,108.7 213.9,108.7 213.9,103.5 221.9,103.5 221.9,103.4 229.8,103.4 229.8,103.3 237.8,103.3 237.8,98.6 245.6,98.6    245.6,98.5 253.6,98.5 253.6,98.4 261.5,98.4 261.5,94.1 269.3,94.1 269.3,94 277.3,94 277.3,93.9 285.1,93.9 285.1,89.9    293.2,89.9 293.2,89.8 301,89.8 301,89.7 309,89.7 309,86.1 316.8,86.1 316.8,85.9 324.7,85.9 324.7,82.6 332.7,82.6 332.7,82.5    340.5,82.5 340.5,79.4 348.5,79.4 348.5,79.2 356.4,79.2 356.4,76.3 364.4,76.3 364.4,76.2 372.2,76.2 372.2,73.5 380.2,73.5    380.2,73.4 388.1,73.4 388.1,70.9 395.9,70.9 395.9,68.5 403.9,68.5 403.9,68.4 411.8,68.4 411.8,66.1 419.6,66.1 419.6,64    427.6,64 427.6,63.9 435.6,63.9 435.6,61.9 443.5,61.9 443.5,60.1 435.4,60.1 435.4,61.8 427.6,61.8 427.6,61.6 419.6,61.6    419.6,63.4 411.8,63.4 411.8,65.4 403.9,65.4 403.9,65.3 395.9,65.3 395.9,67.4 387.9,67.4 387.9,69.5 380.2,69.5 380.2,69.4    372.2,69.4 372.2,71.8 364.4,71.8 364.4,71.7 356.4,71.7 356.4,74.2 348.4,74.2 348.4,74.3 340.5,74.3 340.5,77 332.7,77    332.7,76.9 324.7,76.9 324.7,79.8 316.8,79.8 316.7,79.8 308.8,79.8 308.8,83 301,83 301,82.9 293.2,82.9 293.2,82.8 285.1,82.8    285.1,86.3 277.3,86.3 277.1,86.3 269.3,86.3 269.3,86.2 261.3,86.2 261.3,90 253.6,90 253.4,90 245.6,90 245.6,89.9 237.6,89.9    237.6,94 229.8,94 221.9,94 221.9,93.9 213.9,93.9 213.9,98.5 205.9,98.5 205.9,98.5 198,98.5 198,98.4 190.2,98.4 190,98.4    182.2,98.4 182.2,103.4 174.4,103.4 166.5,103.4 166.5,103.3 158.5,103.3 150.5,103.3 150.5,108.8 142.7,108.8 134.8,108.8    134.6,108.8 126.8,108.8 118.8,108.8 118.8,114.9 111.1,114.9 111,114.9 103.1,114.9 95.1,114.9 87.3,114.9 79.3,114.9 79.3,121.8    71.4,121.8 63.4,121.8 55.6,121.8 55.6,121.7 47.7,121.7 47.6,121.7 39.7,121.7 39.7,121.7 31.9,121.7 31.9,129.5 24.1,129.5    23.9,129.5 16,129.5 16,129.5 8,129.5 8,129.5 0.2,129.5  "/>
	<rect x="467.1" y="340.4" class="st0" width="8" height="0.7"/>
	<rect x="467.1" y="463" class="st0" width="8" height="0.7"/>
	<rect x="467.1" y="449.4" class="st0" width="8" height="0.7"/>
	<rect x="467.1" y="422.2" class="st0" width="8" height="0.7"/>
	<rect x="467.1" y="435.8" class="st0" width="8" height="0.7"/>
	<rect x="459.1" y="461.4" class="st0" width="8" height="1"/>
	<rect x="435.4" y="440.9" class="st0" width="8" height="1.8"/>
	<rect x="467.1" y="408.5" class="st0" width="8" height="0.7"/>
	<rect x="451.3" y="459.7" class="st0" width="8" height="1.3"/>
	<rect x="443.5" y="443.1" class="st0" width="7.8" height="1.6"/>
	<rect x="459.1" y="447.4" class="st0" width="8" height="1"/>
	<rect x="451.3" y="445.3" class="st0" width="8" height="1.3"/>
	<rect x="467.1" y="394.9" class="st0" width="8" height="0.7"/>
	<rect x="467.1" y="299.5" class="st0" width="8" height="0.7"/>
	<rect x="467.1" y="313.1" class="st0" width="8" height="0.7"/>
	<rect x="467.1" y="285.9" class="st0" width="8" height="0.7"/>
	<rect x="467.1" y="245" class="st0" width="8" height="0.7"/>
	<rect x="467.1" y="258.6" class="st0" width="8" height="0.7"/>
	<rect x="467.1" y="272.3" class="st0" width="8" height="0.7"/>
	<rect x="467.1" y="381.3" class="st0" width="8" height="0.7"/>
	<rect x="467.1" y="367.6" class="st0" width="8" height="0.7"/>
	<polygon class="st0" points="0.2,284.9 8.2,284.9 8.2,284.8 16,284.8 24.1,284.8 24.1,284.7 31.9,284.7 31.9,299.2 39.7,299.2    39.9,299.2 47.7,299.2 47.7,299.1 55.6,299.1 63.4,299.1 63.4,299 71.4,299 79.3,299 79.3,311.7 87.3,311.7 95.1,311.7    103.1,311.7 103.1,311.6 111,311.6 111.1,311.6 118.8,311.6 118.8,322.9 126.8,322.9 134.8,322.9 134.8,322.8 142.7,322.8    150.5,322.8 150.5,332.9 158.5,332.9 166.5,332.9 166.5,332.8 174.4,332.8 182.2,332.8 182.2,341.9 190,341.9 190.2,341.9    198,341.9 198,341.8 205.9,341.8 206.1,341.8 213.9,341.8 213.9,350 221.7,350 221.9,350 229.8,350 229.8,349.9 237.6,349.9    237.6,357.4 245.6,357.4 253.6,357.4 253.6,357.3 261.3,357.3 261.3,364.2 269.3,364.2 269.3,364.1 277.1,364.1 277.3,364.1    285.1,364.1 285.1,370.4 293.2,370.4 293.2,370.3 301,370.3 308.8,370.3 308.8,376 316.7,376 316.8,376 324.7,376 324.7,381.3    332.5,381.3 332.7,381.3 340.5,381.3 340.5,386.2 348.5,386.2 348.5,386.1 356.4,386.1 356.4,381.1 348.5,381.1 348.4,381.1    340.5,381.1 340.5,375.8 332.7,375.8 332.7,375.6 324.7,375.6 324.7,369.9 316.8,369.9 316.8,369.7 309,369.7 309,363.6 301,363.6    301,363.4 293.2,363.4 293.2,363.3 285.1,363.3 285.1,356.5 277.3,356.5 277.3,356.4 269.3,356.4 269.3,356.3 261.5,356.3    261.5,348.9 253.6,348.9 253.4,348.9 245.6,348.9 245.6,348.7 237.8,348.7 237.8,340.6 229.8,340.6 221.9,340.6 221.9,340.4    213.9,340.4 213.9,331.6 206.1,331.6 206.1,331.5 198,331.5 198,331.4 190.2,331.4 190.2,331.3 182.4,331.3 182.4,321.5    174.4,321.5 174.4,321.4 166.5,321.4 166.5,321.3 158.5,321.3 158.5,321.2 150.7,321.2 150.7,310.3 142.7,310.3 142.7,310.2    134.8,310.2 134.6,310.2 126.8,310.2 126.8,310.1 119,310.1 119,297.9 111.1,297.9 111.1,297.7 103.1,297.7 95.1,297.7 95.1,297.6    87.3,297.6 87.3,297.5 79.4,297.5 79.4,283.8 71.4,283.8 71.4,283.7 63.4,283.7 55.6,283.7 55.6,283.5 47.6,283.5 47.6,283.5    39.9,283.5 39.9,283.4 31.9,283.4 31.9,267.7 24.1,267.7 23.9,267.7 16,267.7 16,267.6 8.2,267.6 8,267.6 0.2,267.6  "/>
	<rect x="467.1" y="326.8" class="st0" width="8" height="0.7"/>
	<rect x="467.1" y="354" class="st0" width="8" height="0.7"/>
	<rect x="467.1" y="54.2" class="st0" width="8" height="0.7"/>
	<rect x="475" y="199" class="st0" width="8" height="0.4"/>
	<rect x="475" y="145.9" class="st0" width="8" height="0.4"/>
	<rect x="475" y="172.5" class="st0" width="8" height="0.4"/>
	<rect x="475" y="212.3" class="st0" width="8" height="0.4"/>
	<rect x="475" y="159.2" class="st0" width="8" height="0.4"/>
	<rect x="475" y="185.8" class="st0" width="8" height="0.4"/>
	<rect x="475" y="278.7" class="st0" width="8" height="0.4"/>
	<rect x="475" y="265.4" class="st0" width="8" height="0.4"/>
	<rect x="475" y="252.1" class="st0" width="8" height="0.4"/>
	<rect x="475" y="225.6" class="st0" width="8" height="0.4"/>
	<rect x="475" y="238.9" class="st0" width="8" height="0.4"/>
	<rect x="475" y="26.4" class="st0" width="8" height="0.4"/>
	<rect x="475" y="292" class="st0" width="8" height="0.4"/>
	<rect x="475" y="39.7" class="st0" width="8" height="0.4"/>
	<polygon class="st0" points="475,13.3 467.1,13.3 467.1,13.5 459.1,13.5 459.1,13.8 451.3,13.8 451.3,14 443.5,14 443.5,14.4    435.4,14.4 435.4,14.7 427.6,14.7 427.6,14.5 419.6,14.5 419.6,14.9 411.8,14.9 411.8,15.2 403.9,15.2 403.7,15.2 395.9,15.2    395.9,15.6 387.9,15.6 387.9,15.9 380.2,15.9 380.1,15.9 372.2,15.9 372.2,16.3 364.4,16.3 364.2,16.3 356.4,16.3 356.4,16.7    348.5,16.7 348.4,16.7 340.5,16.7 340.5,17.2 332.7,17.2 332.5,17.2 324.7,17.2 324.7,17.7 316.8,17.7 316.8,17.6 308.8,17.6    308.8,18.2 301,18.2 301,18.2 293.2,18.2 293.2,18.1 285.1,18.1 285.1,18.7 277.3,18.7 277.1,18.7 269.3,18.7 269.3,18.7    261.3,18.7 261.3,19.4 253.6,19.4 253.4,19.4 245.6,19.4 245.6,19.3 237.6,19.3 237.6,20 229.8,20 221.9,20 221.7,20 213.9,20    213.9,20.8 206.1,20.8 205.9,20.8 198,20.8 198,20.7 190,20.7 190,20.8 182.2,20.8 182.2,21.6 174.4,21.6 166.5,21.6 166.5,21.5    158.5,21.5 158.5,21.6 150.5,21.6 150.5,22.5 142.7,22.5 134.8,22.5 134.8,22.5 126.8,22.5 126.8,22.6 118.8,22.6 118.8,23.5    111,23.5 111,23.5 103.1,23.5 95.1,23.5 87.3,23.5 87.3,23.6 79.3,23.6 79.3,24.6 71.4,24.6 71.4,24.7 63.4,24.7 55.6,24.7    55.6,24.6 47.6,24.6 47.6,24.7 39.7,24.7 39.7,24.7 31.9,24.7 31.9,25.8 23.9,25.8 23.9,25.9 16,25.9 8.2,25.9 8,25.9 0.2,25.9    0.2,43.2 8.2,43.2 8.2,43.1 16,43.1 16,43 24.1,43 24.1,42.8 31.9,42.8 31.9,40.5 39.9,40.5 39.9,40.4 47.7,40.4 47.7,40.2    55.6,40.2 55.6,40.1 63.4,40.1 63.4,40 71.4,40 71.4,39.8 79.4,39.8 79.4,37.8 87.3,37.8 87.3,37.6 95.1,37.6 95.1,37.5    103.1,37.5 103.1,37.4 111.1,37.4 111.1,37.2 119,37.2 119,35.4 126.8,35.4 126.8,35.2 134.8,35.2 134.8,35.1 142.7,35.1 142.7,35    150.7,35 150.7,33.3 158.5,33.3 158.5,33.1 166.5,33.1 166.5,33 174.4,33 174.4,32.9 182.4,32.9 182.4,31.4 190.2,31.4 190.2,31.2    198,31.2 198,31.1 206.1,31.1 206.1,31 213.9,31 213.9,29.6 221.9,29.6 221.9,29.4 229.8,29.4 229.8,29.3 237.8,29.3 237.8,28    245.6,28 245.6,27.9 253.6,27.9 253.6,27.8 261.5,27.8 261.5,26.6 269.3,26.6 269.3,26.4 277.3,26.4 277.3,26.3 285.1,26.3    285.1,25.2 293.2,25.2 293.2,25.1 301,25.1 301,24.9 309,24.9 309,23.9 316.8,23.9 316.8,23.8 324.7,23.8 324.7,22.9 332.7,22.9    332.7,22.7 340.5,22.7 340.5,21.8 348.5,21.8 348.5,21.7 356.4,21.7 356.4,20.9 364.4,20.9 364.4,20.7 372.2,20.7 372.2,20    380.2,20 380.2,19.8 388.1,19.8 388.1,19.1 395.9,19.1 395.9,18.4 403.9,18.4 403.9,18.2 411.8,18.2 411.8,17.6 419.6,17.6    419.6,16.9 427.6,16.9 427.6,16.8 435.6,16.8 435.6,16.2 443.5,16.2 443.5,15.6 451.3,15.6 451.3,15.1 459.3,15.1 459.3,14.5    467.1,14.5 467.1,14 475.2,14 475.2,13.5 483,13.5 483,13.1 475,13.1  "/>
	<polygon class="st0" points="475.2,0.3 475.2,0 467.1,0 459.1,0 459.1,0.1 451.3,0.1 451.3,0 443.3,0 443.3,0.1 435.4,0.1 435.4,0    427.4,0 427.4,0.1 419.6,0.1 411.8,0.1 411.8,0 403.7,0 403.7,0.1 395.9,0.1 395.9,0 387.9,0 387.9,0.1 380.1,0.1 380.1,0.1    372.2,0.1 372.2,0 364.2,0 364.2,0.1 356.4,0.1 356.4,0 348.4,0 348.4,0.1 340.5,0.1 340.5,0 332.7,0 332.7,0 324.7,0 324.7,0.1    316.8,0.1 316.8,0 308.8,0 308.8,0.1 301,0.1 301,0 293,0 293,0 285,0 285,0.1 277.1,0.1 277.1,0 269.1,0 269.1,0.1 261.5,0.1    261.5,0 253.4,0 253.4,0.1 245.6,0.1 245.6,0.1 237.6,0.1 237.6,0 229.6,0 229.6,0.1 221.7,0.1 221.7,0 213.7,0 213.7,0.1    205.9,0.1 198,0.1 198,0 190,0 190,0.1 182.2,0.1 182.2,0 174.2,0 174.2,0.1 166.3,0.1 166.3,0 158.5,0 158.3,0 150.5,0 150.5,0.1    142.7,0.1 142.7,0 134.6,0 134.6,0.1 126.8,0.1 126.8,0 119,0 119,0 111,0 111,0.1 103.1,0.1 103.1,0 95.1,0 95.1,0.1 87.3,0.1    87.3,0 79.3,0 71.2,0 71.2,0.1 63.4,0.1 63.4,0 55.4,0 55.4,0.1 47.7,0.1 47.7,0 39.7,0 39.7,0.1 31.9,0.1 31.7,0.1 23.9,0.1    23.9,0 15.9,0 15.9,0.1 8,0.1 8,0 0,0 0,8.7 8,8.7 8,8.6 16,8.6 16,8.4 23.9,8.4 23.9,8.3 31.9,8.3 31.9,8.2 39.7,8.2 39.7,8    47.7,8 47.7,7.9 55.6,7.9 55.6,7.7 63.4,7.7 63.4,7.6 71.4,7.6 71.4,7.4 79.3,7.4 79.3,7.3 87.3,7.3 87.3,7.2 95.1,7.2 95.1,7    103.1,7 103.1,6.9 111,6.9 111,6.7 119,6.7 119,6.6 126.8,6.6 126.8,6.5 134.6,6.5 134.6,6.3 142.7,6.3 142.7,6.2 150.5,6.2    150.5,6 158.5,6 158.5,5.9 166.3,5.9 166.3,5.8 174.4,5.8 174.4,5.6 182.2,5.6 182.2,5.5 190.2,5.5 190.2,5.3 198,5.3 198,5.2    205.9,5.2 205.9,5.1 213.9,5.1 213.9,4.9 221.7,4.9 221.7,4.8 229.8,4.8 229.8,4.6 237.6,4.6 237.6,4.5 245.6,4.5 245.6,4.4    253.4,4.4 253.4,4.2 261.5,4.2 261.5,4.1 269.3,4.1 269.3,3.9 277.1,3.9 277.1,3.8 285.1,3.8 285.1,3.6 293,3.6 293,3.5 301,3.5    301,3.4 308.8,3.4 308.8,3.2 316.8,3.2 316.8,3.1 324.7,3.1 324.7,2.9 332.7,2.9 332.7,2.8 340.5,2.8 340.5,2.7 348.4,2.7    348.4,2.5 356.4,2.5 356.4,2.4 364.2,2.4 364.2,2.2 372.2,2.2 372.2,2.1 380.1,2.1 380.1,2 388.1,2 388.1,1.8 395.9,1.8 395.9,1.7    403.9,1.7 403.9,1.5 411.8,1.5 411.8,1.4 419.6,1.4 419.6,1.3 427.6,1.3 427.6,1.1 435.4,1.1 435.4,1 443.5,1 443.5,0.8 451.3,0.8    451.3,0.7 459.3,0.7 459.3,0.5 467.1,0.5 467.1,0.4 475.2,0.4 475.2,0.3 483,0.3 483,0  "/>
	<rect x="475" y="53" class="st0" width="8" height="0.4"/>
	<rect x="475" y="92.8" class="st0" width="8" height="0.4"/>
	<rect x="475" y="119.4" class="st0" width="8" height="0.4"/>
	<rect x="475" y="66.3" class="st0" width="8" height="0.4"/>
	<rect x="475" y="106.1" class="st0" width="8" height="0.4"/>
	<rect x="475" y="79.5" class="st0" width="8" height="0.4"/>
	<rect x="475" y="132.6" class="st0" width="8" height="0.4"/>
	<path class="st0" d="M0.2,457.5H8h0.2H16h7.8h0.2h7.8v3.4h7.8h0.2h7.6h0.2h7.8h7.8h8h7.8v3.1h8h7.8h8h7.8h0.2h7.6v2.7h8h7.8h0.2   h7.8h7.8v2.4h8h7.8h0.2h7.8h7.8v2.2h7.8h0.2h7.8h7.8h0.2h7.8v2h7.8h0.2h7.8h7.8v1.8h8h8V475h7.6v1.7v0.1h8v-0.1h7.8h0.2h7.8v1.5   h7.8h0.2h7.8h7.8v1.4h7.8h0.2h7.8v1.3h8v-0.1h7.8v1.2h7.8h0.2h7.8v1.2h8v-0.1h7.8v1.1h8v-0.1h7.6v1h8v1h8V486c0.4,0,7.8,0,7.8,0   v0.9h7.8v0.8h8v-0.1c0,0,7.5,0,7.8,0v0.8h8v0.7h7.8v0.7h7.8v0.6h8v0.6h8v-0.7h-8v-0.9h-7.8v-0.9h-8v-1h-7.8v-0.9h-7.8v-1.1h-8v-0.2   h-8v-1.1h-7.8V483h-7.8v-0.1h-8v-1.3h-7.8v-1.4h-7.8v-0.1h-8v-1.4h-7.8v-0.1h-8V477h-7.8v-0.1h-8v-1.6h-7.8v-0.1h-8v-1.7h-7.8v-0.2   H309v-1.8h-8v-0.2h-7.8v-0.2h-8v-2h-7.8V469h-8v-0.1h-7.8v-2.3h-7.8h-0.2h-7.8v-0.2h-7.8V464h-8v-0.1h-7.8v-0.2h-8v-2.6h-7.8V461   h-8v-0.2h-7.8v-0.1h-7.8v-2.9h-8v-0.1h-7.8v-0.2h-8v-0.1h-7.8v-3.2h-8v-0.1h-7.8V454h-8v-0.1H119v-3.6h-7.8v-0.2h-8V450h-8v-0.1   h-7.8v-0.1h-7.8v-4.1h-8v-0.1h-8v-0.1h-7.8v-0.2h-7.8v-0.1h-7.8v-0.1h-8v-4.6h-7.8v-0.1h-8v-0.1H8.2v-0.1h-8V457.5z"/>
	<polygon class="st0" points="403.9,419.3 403.9,419.2 411.8,419.2 411.8,416.2 403.9,416.2 403.9,416.1 395.9,416.1 395.9,419.3     "/>
	<rect x="475" y="491.2" class="st0" width="8" height="0.4"/>
	<rect x="467.1" y="476.7" class="st0" width="8" height="0.7"/>
	<rect x="475" y="451.3" class="st0" width="8" height="0.4"/>
	<rect x="475" y="305.3" class="st0" width="8" height="0.4"/>
	<rect x="475" y="464.6" class="st0" width="8" height="0.4"/>
	<path class="st0" d="M0.2,319.4H8h0.2H16v-0.1h7.8h0.2h7.8v12.2h7.8h0.2h7.6h0.2h7.8v-0.1h7.8h8h7.8v10.8h8h7.8v-0.1h8h8V342h7.6   v9.7h8v-0.1h7.8h0.2h7.8h7.8v8.6h8v-0.1h7.8h0.2h7.8V360h7.8v7.8h7.8h0.2h7.8v-0.1h7.8h0.2h7.8v7h8v-0.1h7.8h7.8v6.4h8v-0.1h7.8   h0.2h7.6v5.8h8h8v-0.1h7.8v5.3h7.8h0.2h7.8v-0.1c0,0,7.5,0,7.8,0v5h8v-0.1h7.8v4.5h7.8h0.2h7.8v4.2h8v-0.1h7.8v3.9h8v-0.1h7.8v3.7   h8v-0.1h7.6v3.4h8v-3.5h-7.8v-3.8h-7.8v-0.1h-8v-4h-7.8v-0.1h-8v-4.3h-7.8h-0.2h-7.8v-4.6h-7.8v-0.2h-8v-4.9h-7.8v-0.1H309v-5.4h-8   V385h-7.8v-0.2h-8V379h-8v0h-7.8v-0.2h-7.8v-6.3h-7.8v-0.1h-8v-0.1h-7.8v-7h-8v-0.1h-7.8v-0.1h-8v-7.6h-7.8v-0.1h-8v-0.1h-7.8v-0.1   h-7.8v-8.5h-8h-7.8v-0.2h-8v0h-7.8v-9.4h-8V339h-7.8v-0.1h-8H119v-10.6h-7.8v-0.1h-8v-0.1h-8h-7.8V328h-7.8v-11.8h-8v-0.1h-8V316   h-7.8v-0.1h-7.8v-0.1h-7.8v-0.1h-8v-13.4h-7.8v-0.1h-8H8.2v-0.1h-8V319.4z"/>
	<polygon class="st0" points="0.2,353.9 8,353.9 8.2,353.9 16,353.9 24.1,353.9 24.1,353.8 31.9,353.8 31.9,363.9 39.7,363.9    39.9,363.9 47.7,363.9 47.7,363.8 55.6,363.8 63.4,363.8 71.4,363.8 79.3,363.8 79.3,372.6 87.3,372.6 95.1,372.6 103.1,372.6    111.1,372.6 111.1,372.5 118.8,372.5 118.8,380.4 126.8,380.4 134.6,380.4 134.8,380.4 142.7,380.4 150.5,380.4 150.5,387.4    158.5,387.4 166.5,387.4 166.5,387.3 174.4,387.3 182.2,387.3 182.2,393.7 190.2,393.7 190.2,393.6 198,393.6 205.9,393.6    206.1,393.6 213.9,393.6 213.9,399.3 221.7,399.3 221.9,399.3 229.8,399.3 237.6,399.3 237.6,404.5 245.6,404.5 253.6,404.5    253.6,404.4 261.3,404.4 261.3,409.2 269.3,409.2 277.3,409.2 277.3,409.1 285.1,409.1 285.1,413.5 293,413.5 293.2,413.5    301,413.5 301,413.4 308.8,413.4 308.8,417.5 316.8,417.5 316.8,417.4 324.7,417.4 324.7,421.1 332.5,421.1 332.7,421.1    340.5,421.1 340.5,424.6 348.5,424.6 348.5,424.5 356.4,424.5 356.4,427.7 364.4,427.7 364.4,427.6 372.2,427.6 372.2,430.6    380.1,430.6 380.2,430.6 387.9,430.6 387.9,433.3 395.9,433.3 395.9,436 403.9,436 403.9,435.9 411.8,435.9 411.8,438.3    419.6,438.3 419.6,440.6 427.6,440.6 427.6,440.5 435.6,440.5 435.6,438.4 427.6,438.4 427.6,438.2 419.6,438.2 419.6,435.6    411.8,435.6 411.8,432.9 403.9,432.9 403.9,432.8 395.9,432.8 395.9,429.8 388.1,429.8 388.1,426.7 380.2,426.7 380.2,426.5    372.2,426.5 372.2,423.2 364.4,423.2 364.4,423.1 356.4,423.1 356.4,419.5 348.5,419.5 348.4,419.5 340.5,419.5 340.5,415.6    332.7,415.6 332.7,415.4 324.7,415.4 324.7,411.3 316.8,411.3 316.8,411.2 309,411.2 309,406.7 301,406.7 301,406.6 293.2,406.6    293.2,406.4 285.1,406.4 285.1,401.5 277.1,401.5 277.1,401.5 269.3,401.5 269.3,401.3 261.5,401.3 261.5,396 253.6,396 253.4,396    245.6,396 245.6,395.8 237.8,395.8 237.8,390 229.8,390 229.8,389.9 221.9,389.9 221.9,389.7 213.9,389.7 213.9,383.4 206.1,383.4    206.1,383.3 198,383.3 198,383.1 190.2,383.1 190,383.1 182.4,383.1 182.4,376 174.4,376 174.4,375.9 166.5,375.9 166.5,375.8    158.5,375.8 158.5,375.7 150.7,375.7 150.7,367.9 142.7,367.9 142.7,367.8 134.8,367.8 134.8,367.7 126.8,367.7 126.8,367.6    119,367.6 119,358.8 111.1,358.8 111.1,358.7 103.1,358.7 103.1,358.6 95.1,358.6 95.1,358.5 87.3,358.5 87.3,358.4 79.4,358.4    79.4,348.6 71.4,348.6 71.4,348.5 63.4,348.5 63.4,348.4 55.6,348.4 55.6,348.2 47.7,348.2 47.6,348.2 39.9,348.2 39.9,348.1    31.9,348.1 31.9,336.8 24.1,336.8 23.9,336.8 16,336.8 16,336.7 8.2,336.7 8.2,336.6 0.2,336.6  "/>
	<path class="st0" d="M0.2,422.9H8h0.2H16h7.8h0.2h7.8v5.6h7.8h0.2h7.6v0.1h8h7.8h8h7.8v4.9h8h7.8h8h7.8h0.2h7.6v4.4h8h7.8h0.2h7.8   h7.8v4h8h7.8h0.2h7.8v-0.1h7.8v3.6h7.8h0.2h7.8h7.8h0.2h7.8v3.2h7.8h0.2h7.8h7.8v3h8v-0.1h7.8h0.2h7.6v2.7h8h7.8c0,0,0.2,0,0.2,0   c0.4,0,7.8,0,7.8,0v2.5h8v-0.1c0.4,0,7.8,0,7.8,0h7.8v2.3h8v-0.1h7.8v2.2h8v-0.1h7.8v2h7.8h0.2h7.8v1.8h8v-0.1h7.8v1.7h7.8h0.2h7.6   v1.6h8v1.5h8v-0.1h7.8v1.4h7.8v1.3h8v-0.1h7.8v1.2h8v1.2h7.8v1.1h7.8v1h8v-1h-7.8v-1.3h-8v-1.4h-7.8v-1.4h-7.8v-1.5h-8v-0.2h-8V468   h-7.8v-1.7h-7.8v-0.1h-8v-1.8h-7.8v-2h-7.8v-0.2h-8v-2h-7.8v-0.1h-8v-2.2h-7.8v-0.1h-8v-2.4h-7.8v-0.1h-8v-2.6h-7.8v-0.1H309v-2.7   h-8v-0.2h-7.8v-0.1h-8v-3h-7.8v-0.1h-8v-0.2h-7.8v-3.2h-7.8V443h-8v-0.1h-7.8v-3.6h-8v-0.1h-7.8V439h-8v-3.8h-7.8v-0.1h-8v-0.2   h-7.8v-0.1h-7.8v-4.3h-8h-7.8v-0.2h-8v-0.1h-7.8v-4.8h-8v-0.1h-7.8v-0.1h-8v-0.1H119v-5.3h-7.8v-0.2h-8v-0.1h-8v-0.1h-7.8v-0.1   h-7.8v-5.9h-8v-0.1h-8v-0.1h-7.8V413h-7.8v-0.1h-7.8v-0.2h-8v-6.8h-7.8h-0.2H16v-0.2H8.2v-0.1h-8V422.9z"/>
	<path class="st0" d="M0.2,388.4H8h0.2H16h7.8h0.2h7.8v7.8h7.8h0.2h7.6c0,0,0.2,0,0.2,0c0.4,0,7.8,0,7.8,0h7.8h8v-0.1h7.8v7h8h7.8   V403c0,0,8,0,8,0v0h7.8c0,0,0.2,0,0.2,0c0.3,0,7.3,0,7.6,0v6.2h8h8v-0.1h7.8h7.8v5.5h8h7.8h0.2h7.8h7.8v4.9h7.8h0.2h7.8h7.8h0.2   h7.8v4.5h7.8h0.2h7.8v-0.1h7.8v4.1h8h7.8h0.2h7.6v3.7h8h8v-0.1h7.8v3.5h8V435h7.8h7.8v3.2h8v-0.1h7.8v3h8V441h7.8v2.7h7.8h0.2h7.8   v2.5h8v-0.1h7.8v2.4h8v-0.1h7.6v2.2h8v2.1h8v-0.1h7.8v1.9h7.8v1.8h8v-0.1h7.8v1.7h8v-1.8h-7.8v-2h-8v-0.2h-8v-2.1h-7.8v-2.2h-7.8   v-0.1h-8v-2.4h-7.8v-2.6h-7.8v-0.1h-8v-2.7h-7.8v-0.1h-8v-2.9h-7.8v-0.1h-8v-3.1h-7.8v-0.1h-8V432h-7.8v-0.1H309v-3.6h-8v-0.2h-7.8   V428h-8v-4h-8v0h-7.8v-0.2h-7.8v-4.2h-7.8v-0.1h-8v-0.2h-7.8v-4.7h-8h-7.8v-0.2h-8v-5.1h-7.8v-0.1h-8V409h-7.8v-0.1h-7.8v-5.6h-8   v-0.1h-7.8V403h-8v-0.1h-7.8v-6.3h-8v-0.1h-8v0h-7.8v-0.1H119v-7.1h-7.8v-0.2h-8V389h-8v0h-7.8v-0.1h-7.8v-8h-8h-8v-0.1h-7.8v-0.2   h-7.8v-0.1h-7.8v-0.1h-8v-9h-7.8v-0.1h-8v-0.1H8.2v-0.1h-8V388.4z"/>
	<rect x="443.5" y="457.9" class="st0" width="7.8" height="1.6"/>
	<rect x="475" y="477.9" class="st0" width="8" height="0.4"/>
	<rect x="475" y="345.1" class="st0" width="8" height="0.4"/>
	<rect x="475" y="438" class="st0" width="8" height="0.4"/>
	<rect x="475" y="371.7" class="st0" width="8" height="0.4"/>
	<rect x="475" y="318.5" class="st0" width="8" height="0.4"/>
	<rect x="475" y="331.8" class="st0" width="8" height="0.4"/>
	<rect x="475" y="358.4" class="st0" width="8" height="0.4"/>
	<rect x="475" y="424.8" class="st0" width="8" height="0.4"/>
	<rect x="475" y="411.5" class="st0" width="8" height="0.4"/>
	<rect x="475" y="384.9" class="st0" width="8" height="0.4"/>
	<rect x="475" y="398.2" class="st0" width="8" height="0.4"/>
	<rect x="467.1" y="204.1" class="st0" width="8" height="0.7"/>
	<rect x="387.9" y="378.1" class="st0" width="8" height="3.5"/>
	<rect x="451.3" y="416.5" class="st0" width="8" height="1.3"/>
	<rect x="451.3" y="430.9" class="st0" width="8" height="1.3"/>
	<rect x="459.1" y="433.4" class="st0" width="8" height="1"/>
	<rect x="459.1" y="405.4" class="st0" width="8" height="1"/>
	<rect x="459.1" y="419.4" class="st0" width="8" height="1"/>
	<rect x="443.5" y="413.5" class="st0" width="7.8" height="1.6"/>
	<rect x="459.1" y="237.5" class="st0" width="8" height="1"/>
	<rect x="411.8" y="387.1" class="st0" width="7.8" height="2.7"/>
	<polygon class="st0" points="419.6,409.2 427.6,409.2 427.6,409.1 435.6,409.1 435.6,407 427.6,407 427.6,406.8 419.6,406.8  "/>
	<rect x="435.4" y="410.4" class="st0" width="8" height="1.8"/>
	<rect x="443.5" y="428.3" class="st0" width="7.8" height="1.6"/>
	<rect x="459.1" y="391.4" class="st0" width="8" height="1"/>
	<rect x="459.1" y="279.5" class="st0" width="8" height="1"/>
	<rect x="459.1" y="307.5" class="st0" width="8" height="1"/>
	<rect x="459.1" y="251.5" class="st0" width="8" height="1"/>
	<rect x="459.1" y="265.5" class="st0" width="8" height="1"/>
	<rect x="459.1" y="293.5" class="st0" width="8" height="1"/>
	<rect x="459.1" y="363.4" class="st0" width="8" height="1"/>
	<rect x="459.1" y="321.4" class="st0" width="8" height="1"/>
	<rect x="459.1" y="377.4" class="st0" width="8" height="1"/>
	<rect x="459.1" y="335.4" class="st0" width="8" height="1"/>
	<rect x="459.1" y="349.4" class="st0" width="8" height="1"/>
	<polygon class="st0" points="427.6,393.4 435.6,393.4 435.6,391.3 427.6,391.3 427.6,391.1 419.6,391.1 419.6,393.5 427.6,393.5     "/>
	<polygon class="st0" points="308.8,204 308.8,210.3 316.8,210.3 316.8,210.2 324.7,210.2 324.7,204.1 316.8,204.1 316.8,204  "/>
	<polygon class="st0" points="348.4,189.3 340.5,189.3 340.5,194.4 348.5,194.4 348.5,194.3 356.4,194.3 356.4,189.3 348.5,189.3     "/>
	<polygon class="st0" points="166.5,278.4 166.5,278.3 174.4,278.3 182.4,278.3 182.4,267 174.4,267 174.4,266.9 166.5,266.9    166.5,266.8 158.5,266.8 158.5,266.7 150.5,266.7 150.5,278.4 158.5,278.4  "/>
	<polygon class="st0" points="213.9,251.4 221.7,251.4 221.9,251.4 229.8,251.4 229.8,251.3 237.8,251.3 237.8,242 229.8,242    221.9,242 221.9,241.8 213.9,241.8  "/>
	<polygon class="st0" points="356.4,205.8 364.4,205.8 364.4,205.7 372.2,205.7 372.2,201.3 364.4,201.3 364.4,201.2 356.4,201.2     "/>
	<polygon class="st0" points="380.1,176.6 372.2,176.6 372.2,180.7 380.2,180.7 380.2,180.5 388.1,180.5 388.1,176.6 380.2,176.6     "/>
	<rect x="387.9" y="153.7" class="st0" width="8" height="3.5"/>
	<rect x="387.9" y="136.4" class="st0" width="8" height="3.5"/>
	<polygon class="st0" points="372.2,198.5 380.2,198.5 380.2,198.4 388.1,198.4 388.1,194.5 380.2,194.5 380.2,194.4 372.2,194.4     "/>
	<rect x="387.9" y="170.9" class="st0" width="8" height="3.5"/>
	<polygon class="st0" points="190.2,290.1 198,290.1 198,290 205.9,290 206.1,290 213.9,290 213.9,279.8 206.1,279.8 206.1,279.7    198,279.7 198,279.6 190.2,279.6 190.2,279.5 182.2,279.5 182.2,290.1 190,290.1  "/>
	<polygon class="st0" points="293.2,327.2 301,327.2 301,327.1 309,327.1 309,320.4 301,320.4 301,320.3 293.2,320.3 293.2,320.1    285.1,320.1 285.1,327.2 293,327.2  "/>
	<polygon class="st0" points="348.5,347.8 356.4,347.8 356.4,342.8 348.5,342.8 348.5,342.7 340.5,342.7 340.5,347.8 348.4,347.8     "/>
	<polygon class="st0" points="221.9,300.7 229.8,300.7 229.8,300.6 237.8,300.6 237.8,291.3 229.8,291.3 221.9,291.3 221.9,291.1    213.9,291.1 213.9,300.7 221.7,300.7  "/>
	<rect x="387.9" y="360.8" class="st0" width="8" height="3.5"/>
	<polygon class="st0" points="332.7,341.4 340.5,341.4 340.5,335.9 332.7,335.9 332.7,335.8 324.7,335.8 324.7,341.5 332.7,341.5     "/>
	<polygon class="st0" points="380.2,359.1 388.1,359.1 388.1,355.2 380.2,355.2 380.2,355.1 372.2,355.1 372.2,359.2 380.2,359.2     "/>
	<polygon class="st0" points="364.4,353.7 372.2,353.7 372.2,349.3 364.4,349.3 364.4,349.1 356.4,349.1 356.4,353.7 364.2,353.7     "/>
	<polygon class="st0" points="316.8,334.5 324.7,334.5 324.7,328.4 316.8,328.4 316.8,328.3 308.8,328.3 308.8,334.6 316.8,334.6     "/>
	<polygon class="st0" points="269.3,319.1 277.3,319.1 277.3,319 285.1,319 285.1,311.4 277.3,311.4 277.1,311.4 269.3,311.4    269.3,311.3 261.3,311.3 261.3,319.2 269.3,319.2  "/>
	<polygon class="st0" points="245.6,310.3 253.4,310.3 253.6,310.3 261.5,310.3 261.5,301.9 253.6,301.9 253.6,301.8 245.6,301.8    245.6,301.7 237.6,301.7 237.6,310.4 245.6,310.4  "/>
	<polygon class="st0" points="403.9,385.8 411.8,385.8 411.8,382.8 403.9,382.8 403.9,382.6 395.9,382.6 395.9,385.8 403.7,385.8     "/>
	<rect x="459.1" y="223.5" class="st0" width="8" height="1"/>
	<polygon class="st0" points="372.2,162.8 380.2,162.8 380.2,162.7 388.1,162.7 388.1,158.8 380.2,158.8 380.2,158.7 372.2,158.7     "/>
	<polygon class="st0" points="87.3,281.2 95.1,281.2 103.1,281.2 103.1,281.1 111,281.1 111.1,281.1 119,281.1 119,267.4    111.1,267.4 111.1,267.2 103.1,267.2 95.1,267.2 95.1,267.1 87.3,267.1 79.3,267.1 79.3,281.3 87.3,281.3  "/>
	<polygon class="st0" points="348.4,151 340.5,151 340.5,156.1 348.5,156.1 348.5,156 356.4,156 356.4,151 348.5,151  "/>
	<polygon class="st0" points="285.1,197.8 293.2,197.8 293.2,197.7 301,197.7 301,197.6 309,197.6 309,190.9 301,190.9 301,190.8    293.2,190.8 293.2,190.7 285.1,190.7  "/>
	<polygon class="st0" points="340.5,175.3 348.5,175.3 348.5,175.1 356.4,175.1 356.4,170.1 348.4,170.1 348.4,170.2 340.5,170.2     "/>
	<polygon class="st0" points="356.4,168.8 364.4,168.8 364.4,168.7 372.2,168.7 372.2,164.3 364.4,164.3 364.4,164.2 356.4,164.2     "/>
	<rect x="411.8" y="112" class="st0" width="7.8" height="2.7"/>
	<rect x="411.8" y="128.2" class="st0" width="7.8" height="2.7"/>
	<polygon class="st0" points="395.9,135.3 403.9,135.3 403.9,135.2 411.8,135.2 411.8,132.2 403.9,132.2 403.9,132.1 395.9,132.1     "/>
	<rect x="411.8" y="95.8" class="st0" width="7.8" height="2.7"/>
	<rect x="387.9" y="119.1" class="st0" width="8" height="3.5"/>
	<polygon class="st0" points="372.2,144.9 380.2,144.9 380.2,144.8 388.1,144.8 388.1,140.9 380.2,140.9 380.2,140.8 372.2,140.8     "/>
	<polygon class="st0" points="403.9,402.5 411.8,402.5 411.8,399.5 403.9,399.5 403.9,399.4 395.9,399.4 395.9,402.6 403.9,402.6     "/>
	<rect x="387.9" y="395.3" class="st0" width="8" height="3.5"/>
	<rect x="411.8" y="419.4" class="st0" width="7.8" height="2.7"/>
	<rect x="411.8" y="403.3" class="st0" width="7.8" height="2.7"/>
	<polygon class="st0" points="372.2,394.9 380.2,394.9 380.2,394.8 388.1,394.8 388.1,390.9 380.2,390.9 380.2,390.8 372.2,390.8     "/>
	<polygon class="st0" points="316.8,355.3 324.7,355.3 324.7,349.2 316.8,349.2 316.8,349 308.8,349 308.8,355.3 316.7,355.3  "/>
	<polygon class="st0" points="293.2,348.7 301,348.7 309,348.7 309,342 301,342 301,341.8 293.2,341.8 293.2,341.7 285.1,341.7    285.1,348.8 293.2,348.8  "/>
	<polygon class="st0" points="380.2,377 388.1,377 388.1,373.1 380.2,373.1 380.2,373 372.2,373 372.2,377.1 380.2,377.1  "/>
	<polygon class="st0" points="332.7,361.3 340.5,361.3 340.5,355.8 332.7,355.8 332.7,355.7 324.7,355.7 324.7,361.4 332.7,361.4     "/>
	<polygon class="st0" points="348.5,366.9 356.4,366.9 356.4,361.9 348.5,361.9 348.4,361.9 340.5,361.9 340.5,367 348.5,367  "/>
	<polygon class="st0" points="364.4,372.2 372.2,372.2 372.2,367.8 364.4,367.8 364.4,367.6 356.4,367.6 356.4,372.2 364.2,372.2     "/>
	<rect x="443.5" y="73.2" class="st0" width="7.8" height="1.6"/>
	<rect x="459.1" y="139.5" class="st0" width="8" height="1"/>
	<rect x="459.1" y="111.5" class="st0" width="8" height="1"/>
	<rect x="459.1" y="125.5" class="st0" width="8" height="1"/>
	<rect x="451.3" y="100.1" class="st0" width="8" height="1.3"/>
	<rect x="459.1" y="97.5" class="st0" width="8" height="1"/>
	<rect x="459.1" y="153.5" class="st0" width="8" height="1"/>
	<rect x="459.1" y="195.5" class="st0" width="8" height="1"/>
	<rect x="451.3" y="85.7" class="st0" width="8" height="1.3"/>
	<rect x="459.1" y="209.5" class="st0" width="8" height="1"/>
	<rect x="459.1" y="181.5" class="st0" width="8" height="1"/>
	<rect x="459.1" y="167.5" class="st0" width="8" height="1"/>
	<rect x="459.1" y="69.5" class="st0" width="8" height="1"/>
	<rect x="443.5" y="88" class="st0" width="7.8" height="1.6"/>
	<polygon class="st0" points="427.6,424.8 435.6,424.8 435.6,422.7 427.6,422.7 427.6,422.5 419.6,422.5 419.6,424.9 427.6,424.9     "/>
	<rect x="443.5" y="58.4" class="st0" width="7.8" height="1.6"/>
	<rect x="435.4" y="75.3" class="st0" width="8" height="1.8"/>
	<rect x="435.4" y="90.6" class="st0" width="8" height="1.8"/>
	<rect x="459.1" y="83.5" class="st0" width="8" height="1"/>
	<rect x="459.1" y="55.5" class="st0" width="8" height="1"/>
	<rect x="451.3" y="56.9" class="st0" width="8" height="1.3"/>
	<polygon class="st0" points="419.6,111.1 427.6,111.1 427.6,111 435.6,111 435.6,108.9 427.6,108.9 427.6,108.7 419.6,108.7  "/>
	<rect x="451.3" y="71.3" class="st0" width="8" height="1.3"/>
</g>
</svg>