<svg xmlns="http://www.w3.org/2000/svg" width="346.667" height="346.667" preserveAspectRatio="xMidYMid meet" version="1.0" viewBox="0 0 260 260"><metadata>Created for UchiVibe Music</metadata><g fill="#000" stroke="none"><path d="M0 1300 l0 -1300 1300 0 1300 0 0 1300 0 1300 -1300 0 -1300 0 0 -1300z m1130 700 c100 -50 150 -140 150 -270 0 -80 -20 -140 -60 -190 -30 -40 -110 -90 -160 -100 -50 -10 -150 0 -200 20 -90 40 -140 120 -140 220 0 80 30 140 90 180 40 20 60 25 120 25 60 0 80 -5 120 -25 l50 -20 0 40 c0 50 10 80 30 110 30 30 60 40 100 40 30 0 40 -5 60 -20 30 -30 30 -80 0 -110 -30 -30 -80 -30 -110 0z" transform="translate(0.000000,260.000000) scale(0.100000,-0.100000)"/></g></svg>